<svg xmlns="http://www.w3.org/2000/svg" xmlns:xlink="http://www.w3.org/1999/xlink" width="325" height="63.62" viewBox="0 0 325 63.62"><defs><style>.a{fill:#fff;}.b{fill:url(#a);}.c{fill:#005f90;}.d{fill:#0089c7;}.e{fill:url(#b);}.f{fill:url(#c);}</style><linearGradient id="a" y1="0.497" x2="1" y2="0.497" gradientUnits="objectBoundingBox"><stop offset="0" stop-color="#495965" stop-opacity="0"/><stop offset="0.422" stop-color="#9ba4ab" stop-opacity="0.424"/><stop offset="0.817" stop-color="#e3e5e7" stop-opacity="0.816"/><stop offset="1" stop-color="#fff"/></linearGradient><linearGradient id="b" x1="0.049" y1="0.703" x2="1.073" y2="0.099" gradientUnits="objectBoundingBox"><stop offset="0" stop-color="#5d6a76"/><stop offset="0.212" stop-color="#9da5ac"/><stop offset="0.41" stop-color="#d2d6d9"/><stop offset="0.557" stop-color="#f3f4f5"/><stop offset="0.638" stop-color="#fff"/><stop offset="1" stop-color="#5d6a76"/></linearGradient><linearGradient id="c" x1="0.049" y1="0.704" x2="1.073" y2="0.1" gradientUnits="objectBoundingBox"><stop offset="0" stop-color="#495966"/><stop offset="0.237" stop-color="#929ca4"/><stop offset="0.569" stop-color="#fff"/><stop offset="1" stop-color="#495966"/></linearGradient></defs><g transform="translate(0 0.073)"><g transform="translate(321.184 58.998)"><path class="a" d="M440.314,81.5l-.293,1.688H438.7l.294-1.688Z" transform="translate(-438.7 -81.5)"/></g><g transform="translate(44.028 59.878)"><rect class="b" width="195.998" height="0.807"/></g><path class="c" d="M216.521,26.123c0,2.275-.807,3.229-2.642,3.229s-2.642-1.027-2.642-3.229V1.173H205V25.9c0,5.65,3.3,9.026,8.952,9.026,5.577,0,8.952-3.375,8.952-9.026V1.1h-6.237V26.123Z" transform="translate(-55.305 -1.1)"/><path class="c" d="M247.233,23.889,242.1,9.8h-4.7v27h4.7V21.321L247.453,36.8h4.476V9.8h-4.7Z" transform="translate(-63.93 -3.416)"/><rect class="c" width="5.063" height="27.004" transform="translate(195.411 6.384)"/><path class="c" d="M290.445,27.118,287.29,9.8H282.3l5.65,27h4.99l5.65-27h-5.063Z" transform="translate(-75.882 -3.416)"/><path class="c" d="M317.163,25.063h5.87V20.587h-5.87V14.276h7.632V9.8H312.1v27h13.208v-4.55h-8.145Z" transform="translate(-83.815 -3.416)"/><path class="c" d="M353.876,17.872c0-5.577-2.422-8.072-8-8.072H339.2v27h5.063V25.944c.734,0,1.394-.073,1.908-.073L349.4,36.8h5.21L350.794,24.7C352.262,23.889,353.876,22.128,353.876,17.872Zm-9.539-3.816h1.321c2.128,0,3.082.587,3.082,3.816s-1.027,3.816-3.082,3.816h-1.321Z" transform="translate(-91.029 -3.416)"/><path class="c" d="M375.3,21.088c-1.981-1.688-3.742-3.155-3.742-5.063,0-1.1.367-2.348,1.981-2.348.587,0,1.981.294,2.128,2.715v.294l4.843-.514v-.294c-.44-4.109-2.935-6.678-6.6-6.678-4.623,0-7.338,2.495-7.338,6.9,0,4.256,2.862,6.6,5.357,8.732,2.055,1.761,3.889,3.229,3.889,5.5,0,1.394-.881,2.128-2.348,2.128-1.394,0-2.275-1.394-2.422-3.742v-.294l-4.843.734v.22c.22,5.21,3.742,7.558,7.118,7.558,4.623,0,7.485-2.715,7.485-7.044C380.8,25.784,377.867,23.289,375.3,21.088Z" transform="translate(-98.216 -3.256)"/><path class="c" d="M397.09,9.8l-4.99,27h4.916l.807-5.87h4.55l.807,5.87H408.1l-4.99-27H397.09Zm4.549,16.657h-3.009l1.541-9.613Z" transform="translate(-105.111 -3.416)"/><path class="c" d="M427.063,32.254V9.8H422v27h12.181v-4.55Z" transform="translate(-113.07 -3.416)"/><path class="d" d="M88.763,9.8H83.7V20.807c1.688-.073,3.375-.073,5.063-.073Z" transform="translate(-23.015 -3.416)"/><path class="d" d="M83.7,42.607H95.954V38.131H88.837V31.6l-5.063.44V42.607Z" transform="translate(-23.015 -9.219)"/><path class="d" d="M108.1,30.7V42.367h12.254V37.891h-7.118V30.773H111.4C110.3,30.7,109.2,30.7,108.1,30.7Z" transform="translate(-29.51 -8.98)"/><path class="d" d="M113.263,9.8H108.2V21.1c1.688.073,3.375.22,5.063.367Z" transform="translate(-29.537 -3.416)"/><path class="d" d="M137.863,9.8H132.8V23.082q2.642.44,5.063.881Z" transform="translate(-36.085 -3.416)"/><path class="d" d="M132.8,42.554h5.063V31.84L132.8,31.4Z" transform="translate(-36.085 -9.166)"/><path class="d" d="M155.463,25.063h5.87v-4.55h-5.87V14.276h7.632V9.8H150.4v27h13.208v-4.55h-8.145Z" transform="translate(-40.77 -3.416)"/><path class="d" d="M183.144,9.8H176.1v27h7.044c4.916,0,7.485-2.788,7.485-8.292V18.019C190.556,12.515,188.061,9.8,183.144,9.8Zm2.348,19.226c0,2.642-.734,3.449-3.009,3.449h-1.321V14.056h1.321c2.275,0,3.009.807,3.009,3.449Z" transform="translate(-47.612 -3.416)"/><path class="d" d="M61.124,9.712l1.1,9.539,5.5-.44L64.867,1.2H57.382L54.3,20.132c1.834-.22,3.742-.514,5.724-.66Z" transform="translate(-15.188 -1.127)"/><path class="d" d="M67.027,43.16h6.311L71.724,33.4c-1.981.294-3.889.587-5.724.954Z" transform="translate(-18.303 -9.698)"/><path class="d" d="M51.1,43.772h6.311l.881-8.072q-3.192.66-6.164,1.541Z" transform="translate(-14.337 -10.311)"/><g transform="translate(0 17.978)"><path class="e" d="M16.923,48.935c0-11.227,29.5-20.326,65.969-20.326a194.894,194.894,0,0,1,26.2,1.688c-11.447-2.935-26.123-4.7-42.12-4.7C30.5,25.6,1,34.7,1,45.926c0,8.365,16.364,15.483,39.772,18.639C26.169,60.822,16.923,55.172,16.923,48.935Z" transform="translate(-1 -25.6)"/></g><g transform="translate(319.423 5.137)"><path class="c" d="M436.3,10.962A2.717,2.717,0,0,1,439.088,8.1a2.676,2.676,0,0,1,2.788,2.862,2.676,2.676,0,0,1-2.788,2.862A2.717,2.717,0,0,1,436.3,10.962Zm5.063,0a2.276,2.276,0,1,0-4.55,0,2.276,2.276,0,1,0,4.55,0ZM439.9,12.5l-.66-1.321h-.587V12.5h-.587V9.274h1.1c.807,0,1.321.294,1.321.954a.954.954,0,0,1-.587.881l.734,1.468H439.9Zm-.734-1.761c.367,0,.734-.073.734-.514,0-.367-.367-.44-.66-.44h-.514v.954Z" transform="translate(-436.3 -8.1)"/></g><g transform="translate(244.209 47.77)"><path class="a" d="M340.624,66.3l-.294,1.174h-2.568l-2.568,11.521H333.8l2.568-11.521H333.8l.293-1.174Z" transform="translate(-333.8 -66.227)"/><path class="a" d="M344.062,66.3h1.247l-1.027,4.55a4.526,4.526,0,0,1,2.275-1.174c1.247,0,1.834.734,1.468,2.422l-1.541,6.9h-1.247l1.468-6.751q.33-1.541-.66-1.541a3.408,3.408,0,0,0-1.981,1.1l-1.614,7.118H341.2Z" transform="translate(-335.77 -66.227)"/><path class="a" d="M352.963,75.916l-.073.514c-.514,2.2-.147,3.009,1.027,3.009.954,0,1.541-.881,1.908-1.688L357,77.9a3.875,3.875,0,0,1-3.449,2.642c-1.908,0-2.495-1.468-1.761-4.77S353.7,71,355.6,71s2.422,1.688,1.834,4.329l-.147.587h-4.329Zm3.3-1.027c.44-1.981.22-2.862-.881-2.862-.881,0-1.688.66-2.128,2.862Z" transform="translate(-338.507 -67.478)"/><path class="a" d="M362.528,71.12h1.247l-.22,1.1h0a3.062,3.062,0,0,1,2.568-1.321l-.294,1.174a3.078,3.078,0,0,0-2.715,1.614l-1.468,6.531H360.4Z" transform="translate(-340.881 -67.451)"/><path class="a" d="M369.463,75.916l-.073.514c-.514,2.2-.147,3.009,1.027,3.009.954,0,1.541-.881,1.908-1.688l1.174.147a3.875,3.875,0,0,1-3.449,2.642c-1.908,0-2.495-1.468-1.761-4.77S370.2,71,372.1,71s2.422,1.688,1.835,4.329l-.147.587h-4.329Zm3.3-1.027c.367-1.981.22-2.862-.881-2.862-.881,0-1.688.66-2.128,2.862Z" transform="translate(-342.9 -67.478)"/><path class="a" d="M383.787,69.869h1.394l.44-1.835A2.024,2.024,0,0,1,387.9,66.2c.367,0,.66.073.954.073l-.22.954a2.142,2.142,0,0,0-.66-.147,1.1,1.1,0,0,0-1.1.954l-.44,1.835H387.9l-.22,1.027h-1.468l-1.761,8.072H383.2l1.761-8.072h-1.394Z" transform="translate(-346.95 -66.2)"/><path class="a" d="M393.4,71c1.908,0,2.495,1.468,1.761,4.77s-1.908,4.77-3.816,4.77-2.495-1.468-1.761-4.77C390.25,72.394,391.5,71,393.4,71ZM391.5,79.439c1.1,0,1.688-.66,2.348-3.669s.367-3.669-.734-3.669-1.688.66-2.348,3.669C390.176,78.7,390.47,79.439,391.5,79.439Z" transform="translate(-348.57 -67.478)"/><path class="a" d="M399.828,71.12h1.247l-.22,1.1h0a3.062,3.062,0,0,1,2.568-1.321l-.294,1.174a3.078,3.078,0,0,0-2.715,1.614l-1.468,6.531H397.7Z" transform="translate(-350.81 -67.451)"/><path class="a" d="M412.362,71.2l.147,6.971h0l2.935-6.971h1.321l-4.109,8.952c-.881,1.981-2.055,3.155-3.6,3.155h-.66l.22-1.027h.367c1.027,0,1.835-.734,2.348-1.981l-.294-9.1Z" transform="translate(-353.659 -67.531)"/><path class="a" d="M423.6,71c1.908,0,2.495,1.468,1.761,4.77s-1.908,4.77-3.816,4.77-2.495-1.468-1.761-4.77C420.523,72.394,421.7,71,423.6,71Zm-1.834,8.439c1.1,0,1.688-.66,2.348-3.669s.367-3.669-.734-3.669-1.688.66-2.348,3.669C420.376,78.7,420.67,79.439,421.77,79.439Z" transform="translate(-356.609 -67.478)"/><path class="a" d="M433.63,80.372h-1.174l.22-1.027a5.026,5.026,0,0,1-2.348,1.174c-1.247,0-1.835-.734-1.468-2.422l1.541-6.9h1.247l-1.468,6.751q-.33,1.541.66,1.541a3.408,3.408,0,0,0,1.981-1.1l1.614-7.118h1.247Z" transform="translate(-359.076 -67.531)"/><g transform="translate(77.343 11.154)"><path class="a" d="M441.035,81.4l-.367,1.688H439.2l.367-1.688Z" transform="translate(-439.2 -81.4)"/></g></g></g><path class="a" d="M216.221,26.149c0,2.275-.807,3.229-2.642,3.229s-2.642-1.027-2.642-3.229V1.2H204.7V25.929c0,5.65,3.3,9.026,8.952,9.026,5.577,0,8.952-3.375,8.952-9.026V1.2h-6.237V26.149Z" transform="translate(-55.225 -1.053)"/><path class="a" d="M246.933,23.889,241.8,9.8h-4.7v27h4.7V21.321L247.153,36.8h4.476V9.8h-4.7Z" transform="translate(-63.85 -3.343)"/><rect class="a" width="5.063" height="27.004" transform="translate(195.191 6.457)"/><path class="a" d="M290.145,27.118,286.99,9.8H282l5.65,27h4.916l5.65-27h-4.99Z" transform="translate(-75.802 -3.343)"/><path class="a" d="M316.863,25.063h5.87V20.587h-5.87V14.276h7.632V9.8H311.8v27h13.208V32.328h-8.145Z" transform="translate(-83.735 -3.343)"/><path class="a" d="M353.6,17.872c0-5.577-2.422-8.072-8-8.072H339v27h5.063V25.944c.734,0,1.394-.073,1.908-.073L349.2,36.8h5.21L350.521,24.7C351.988,23.889,353.6,22.128,353.6,17.872Zm-9.539-3.816h1.321c2.128,0,3.082.587,3.082,3.816s-1.027,3.816-3.082,3.816h-1.321Z" transform="translate(-90.976 -3.343)"/><path class="a" d="M375,21.188c-1.981-1.688-3.742-3.155-3.742-5.063,0-1.1.367-2.348,1.981-2.348.587,0,1.981.294,2.128,2.715v.294l4.843-.514v-.294c-.44-4.109-2.935-6.678-6.6-6.678-4.623,0-7.338,2.495-7.338,6.9,0,4.256,2.862,6.6,5.357,8.732,2.055,1.761,3.889,3.229,3.889,5.5,0,1.394-.881,2.128-2.348,2.128-1.394,0-2.275-1.394-2.422-3.742v-.294l-4.843.734v.22c.22,5.21,3.742,7.558,7.118,7.558,4.623,0,7.485-2.715,7.485-7.044C380.5,25.884,377.567,23.389,375,21.188Z" transform="translate(-98.136 -3.209)"/><path class="a" d="M396.79,9.8l-4.99,27h4.916l.807-5.87h4.55l.807,5.87H407.8l-4.99-27H396.79Zm4.549,16.657h-3.082l1.541-9.613Z" transform="translate(-105.031 -3.343)"/><path class="a" d="M426.763,32.328V9.8H421.7v27h12.181V32.328Z" transform="translate(-112.99 -3.343)"/><path class="a" d="M88.763,9.6H83.7V20.607c1.688-.073,3.375-.073,5.063-.073Z" transform="translate(-23.015 -3.289)"/><path class="a" d="M83.7,42.407H95.954V37.931H88.837V31.4l-5.063.44V42.407Z" transform="translate(-23.015 -9.092)"/><path class="a" d="M108.1,30.583V42.25h12.254V37.774h-7.118V30.656H111.4A16.564,16.564,0,0,0,108.1,30.583Z" transform="translate(-29.51 -8.862)"/><path class="a" d="M113.263,9.6H108.2V20.9c1.688.073,3.375.22,5.063.367Z" transform="translate(-29.537 -3.289)"/><path class="a" d="M137.863,9.6H132.8V22.882q2.642.44,5.063.881Z" transform="translate(-36.085 -3.289)"/><path class="a" d="M132.8,42.354h5.063V31.64L132.8,31.2Z" transform="translate(-36.085 -9.039)"/><path class="a" d="M155.463,24.863h5.87V20.387h-5.87V14.076h7.632V9.6H150.4v27h13.208V32.128h-8.145Z" transform="translate(-40.77 -3.289)"/><path class="a" d="M183.144,9.6H176.1v27h7.044c4.916,0,7.485-2.788,7.485-8.292V17.892C190.556,12.388,188.061,9.6,183.144,9.6Zm2.348,19.3c0,2.642-.734,3.449-3.009,3.449h-1.321V13.856h1.321c2.275,0,3.009.807,3.009,3.449Z" transform="translate(-47.612 -3.289)"/><path class="a" d="M61.124,9.512l1.1,9.539,5.5-.44L64.793,1H57.382L54.3,19.932c1.834-.22,3.742-.514,5.724-.66Z" transform="translate(-15.188 -1)"/><path class="a" d="M67.027,42.96h6.311L71.724,33.2c-1.981.294-3.889.587-5.724.954Z" transform="translate(-18.303 -9.572)"/><path class="a" d="M51.1,43.572h6.311l.881-8.072q-3.192.66-6.164,1.541Z" transform="translate(-14.337 -10.184)"/><g transform="translate(0 17.905)"><path class="f" d="M16.923,48.735c0-11.227,29.5-20.326,65.969-20.326a194.894,194.894,0,0,1,26.2,1.688c-11.447-2.935-26.123-4.7-42.12-4.7C30.5,25.473,1,34.5,1,45.726c0,8.365,16.364,15.483,39.772,18.639C26.169,60.622,16.923,55.046,16.923,48.735Z" transform="translate(-1 -25.4)"/></g><g transform="translate(319.203 5.21)"><path class="a" d="M436,10.962A2.717,2.717,0,0,1,438.788,8.1a2.676,2.676,0,0,1,2.789,2.862,2.789,2.789,0,1,1-5.577,0Zm5.063,0a2.276,2.276,0,1,0-4.55,0,2.175,2.175,0,0,0,2.275,2.348A2.106,2.106,0,0,0,441.063,10.962ZM439.6,12.576l-.66-1.321h-.587v1.321h-.587v-3.3h1.1c.807,0,1.321.294,1.321.954a.953.953,0,0,1-.587.881l.734,1.468Zm-.734-1.834c.367,0,.734-.073.734-.514,0-.367-.367-.44-.66-.44h-.514v.954Z" transform="translate(-436 -8.1)"/></g></svg>