<?xml version="1.0" standalone="no"?>
<!DOCTYPE svg PUBLIC "-//W3C//DTD SVG 20010904//EN"
 "http://www.w3.org/TR/2001/REC-SVG-20010904/DTD/svg10.dtd">
<svg version="1.0" xmlns="http://www.w3.org/2000/svg"
 width="1015.000000pt" height="1015.000000pt" viewBox="0 0 1015.000000 1015.000000"
 preserveAspectRatio="xMidYMid meet">
<metadata>
Created by potrace 1.11, written by Peter Selinger 2001-2013
</metadata>
<g transform="translate(0.000000,1015.000000) scale(0.100000,-0.100000)"
fill="#000000" stroke="none">
<path d="M3722 10000 c-136 -19 -444 -117 -677 -214 -303 -128 -621 -335 -839
-546 -230 -223 -311 -338 -500 -711 -184 -365 -263 -559 -228 -559 6 0 61 47
121 104 142 134 240 213 376 301 245 159 435 251 700 340 154 51 366 105 416
105 13 0 58 7 99 16 60 13 112 15 260 11 102 -3 212 -11 245 -17 180 -33 370
-92 562 -176 56 -24 104 -44 107 -44 17 0 505 -235 524 -253 27 -25 28 -66 3
-98 -10 -14 -65 -53 -122 -89 -96 -59 -151 -96 -328 -222 -194 -138 -181 -136
-337 -70 -185 77 -442 161 -560 183 -82 14 -153 19 -300 19 -185 0 -210 -2
-404 -41 -108 -22 -412 -127 -585 -204 -82 -36 -164 -78 -241 -123 -36 -20
-77 -44 -93 -53 -77 -42 -216 -139 -321 -224 -81 -65 -281 -276 -393 -414 -80
-99 -285 -485 -413 -778 -39 -91 -54 -137 -52 -162 l3 -35 61 59 c86 86 152
145 204 185 25 19 50 40 57 46 19 19 184 132 268 185 76 48 152 86 350 179
368 172 837 260 1170 220 218 -26 485 -102 541 -155 47 -45 44 -72 -20 -223
-59 -138 -75 -195 -56 -207 7 -4 56 37 123 102 62 61 123 120 137 133 76 69
136 77 228 31 31 -15 68 -32 82 -36 57 -17 251 -118 265 -138 16 -22 19 -54 9
-81 -7 -19 -83 -75 -204 -151 -353 -221 -750 -581 -971 -880 -24 -33 -47 -62
-50 -65 -38 -32 -271 -394 -378 -589 -92 -166 -273 -536 -325 -665 -25 -61
-74 -183 -110 -271 -100 -243 -164 -480 -207 -770 -9 -59 -14 -185 -14 -370 0
-306 9 -384 75 -653 128 -524 460 -974 963 -1305 221 -145 508 -279 782 -364
335 -105 564 -158 785 -183 52 -6 151 -17 220 -25 200 -24 784 -21 982 5 466
61 707 123 1146 299 192 77 464 237 677 400 243 185 479 441 651 708 241 373
533 973 677 1393 46 134 87 294 87 343 0 34 -2 37 -19 28 -68 -37 -399 -686
-490 -959 -17 -52 -39 -108 -50 -125 -39 -64 -277 -263 -431 -362 -41 -26 -87
-56 -102 -66 -49 -34 -381 -194 -488 -236 -224 -87 -514 -168 -760 -212 -63
-11 -155 -28 -205 -37 -146 -26 -371 -39 -670 -38 -433 0 -710 32 -1100 125
-226 53 -620 196 -795 288 -19 11 -73 39 -120 64 -248 129 -554 376 -738 594
-207 245 -390 613 -461 928 -53 236 -56 263 -55 595 1 283 4 325 23 410 27
121 52 157 223 326 211 209 378 345 623 508 346 230 625 377 940 494 235 88
287 104 445 136 254 51 462 64 1015 64 477 0 686 20 1075 103 156 34 441 124
585 186 50 22 110 48 135 59 183 78 474 237 535 292 83 74 158 199 340 562
144 288 220 474 213 521 -5 41 -66 32 -383 -56 -43 -12 -220 -46 -576 -110
-47 -8 -108 -15 -135 -15 -27 0 -67 -5 -89 -10 -22 -6 -110 -15 -195 -21 -85
-6 -209 -14 -275 -19 -154 -10 -533 -5 -700 10 -400 35 -933 135 -1005 188
-28 21 -38 66 -19 88 29 35 118 60 354 99 152 25 186 27 705 35 758 12 789 15
1120 81 383 77 823 238 1170 428 222 122 251 148 367 337 118 195 352 680 403
837 16 52 7 87 -25 87 -13 0 -129 -27 -257 -59 -199 -51 -526 -117 -663 -135
-22 -3 -74 -10 -115 -15 -195 -26 -273 -32 -505 -43 -498 -24 -771 -11 -1190
54 -128 20 -424 76 -435 83 -3 2 -59 17 -125 35 -151 40 -415 128 -520 173
-205 89 -358 158 -445 201 -108 54 -358 161 -470 201 -41 14 -138 42 -215 62
-138 35 -143 36 -375 39 -129 1 -264 -1 -298 -6z"/>
<path d="M5480 4234 c-22 -6 -148 -198 -220 -334 -145 -274 -189 -368 -281
-598 -68 -169 -65 -199 21 -232 78 -30 283 -138 415 -218 174 -106 388 -212
443 -219 36 -5 45 -2 70 23 90 90 417 725 504 977 38 110 34 130 -30 159 -167
75 -371 183 -464 246 -172 116 -399 213 -458 196z"/>
</g>
</svg>
