<?xml version="1.0" standalone="no"?>
<!DOCTYPE svg PUBLIC "-//W3C//DTD SVG 20010904//EN"
 "http://www.w3.org/TR/2001/REC-SVG-20010904/DTD/svg10.dtd">
<svg version="1.0" xmlns="http://www.w3.org/2000/svg"
 width="1280.000000pt" height="808.000000pt" viewBox="0 0 1280.000000 808.000000"
 preserveAspectRatio="xMidYMid meet">
<metadata>
Created by potrace 1.15, written by Peter Selinger 2001-2017
</metadata>
<g transform="translate(0.000000,808.000000) scale(0.100000,-0.100000)"
fill="#000000" stroke="none">
<path d="M6376 8065 c-3 -8 -14 -15 -25 -15 -28 0 -36 -18 -17 -39 26 -29 19
-40 -31 -43 -27 -2 -48 -7 -47 -13 1 -5 23 -23 50 -38 59 -35 73 -53 74 -93 0
-40 -18 -63 -76 -94 -26 -14 -48 -29 -49 -35 0 -5 21 -11 48 -13 l47 -3 0
-152 -1 -152 -554 -500 c-305 -275 -553 -504 -551 -510 1 -5 35 -21 74 -33
l73 -24 -3 -94 -3 -94 -940 -513 c-578 -315 -940 -518 -940 -527 0 -10 25 -19
90 -30 l90 -16 0 -363 0 -363 -140 -58 c-77 -32 -286 -117 -465 -190 -179 -73
-410 -167 -515 -210 -104 -43 -323 -132 -485 -198 -162 -66 -423 -173 -580
-237 -157 -64 -384 -156 -505 -206 -994 -405 -990 -403 -990 -424 0 -18 19
-22 235 -50 129 -17 241 -34 248 -38 9 -7 12 -205 12 -937 l0 -928 27 -6 c16
-3 940 -136 2054 -296 1114 -159 2403 -343 2864 -410 690 -99 858 -120 954
-120 99 0 360 35 1721 230 883 126 2172 311 2865 410 693 99 1272 183 1288
186 l27 6 0 934 c0 514 1 934 3 935 1 0 112 15 247 32 224 30 245 35 245 52 0
21 66 -7 -1495 630 -1405 573 -1759 718 -1977 807 l-223 90 0 359 c0 198 1
359 3 360 1 0 45 8 97 17 68 13 95 22 95 32 0 9 -367 215 -940 527 l-940 513
-3 94 -3 95 71 22 c38 11 72 25 75 29 6 10 -28 42 -623 580 l-482 435 0 164 0
165 47 41 c40 35 47 47 47 78 0 38 -38 91 -73 102 -21 7 -26 69 -6 85 23 19
18 40 -10 40 -14 0 -28 7 -31 15 -4 8 -14 15 -24 15 -10 0 -20 -7 -24 -15z"/>
</g>
</svg>
