<?xml version="1.0" standalone="no"?>
<!DOCTYPE svg PUBLIC "-//W3C//DTD SVG 20010904//EN"
 "http://www.w3.org/TR/2001/REC-SVG-20010904/DTD/svg10.dtd">
<svg version="1.0" xmlns="http://www.w3.org/2000/svg"
 width="1280.000000pt" height="1074.000000pt" viewBox="0 0 1280.000000 1074.000000"
 preserveAspectRatio="xMidYMid meet">
<metadata>
Created by potrace 1.15, written by Peter Selinger 2001-2017
</metadata>
<g transform="translate(0.000000,1074.000000) scale(0.100000,-0.100000)"
fill="#000000" stroke="none">
<path d="M12168 9760 c-98 -882 -108 -961 -128 -988 -23 -31 -20 -52 6 -52 12
0 14 -84 14 -599 l0 -598 -87 -14 -88 -14 -3 -58 c-3 -57 -2 -60 87 -208 l91
-150 0 -719 0 -720 -22 -4 c-13 -3 -54 -10 -93 -16 -139 -23 -125 -12 -125
-92 0 -71 0 -71 85 -218 l85 -147 0 -726 0 -725 -67 -7 c-38 -3 -92 -8 -120
-11 l-53 -5 0 -55 c0 -49 10 -74 95 -244 l95 -190 0 -1600 0 -1600 340 0 340
0 0 1605 0 1605 90 180 c83 165 90 185 90 239 0 58 0 59 -31 65 -17 3 -48 6
-69 6 -20 0 -58 3 -84 6 l-46 7 0 730 0 730 85 147 c83 144 85 148 85 213 0
37 -4 67 -9 67 -9 0 -171 27 -213 36 l-28 6 0 714 0 714 95 159 c86 145 95
164 95 210 0 57 8 52 -115 74 l-70 12 -3 592 -2 592 22 12 c13 6 25 13 27 15
2 2 -8 17 -23 34 -14 17 -26 37 -26 44 0 22 -210 1899 -213 1902 -1 1 -50
-429 -109 -956z"/>
<path d="M1857 10690 c-3 -14 -52 -443 -108 -955 -98 -896 -102 -931 -126
-963 -14 -18 -23 -35 -22 -36 2 -2 14 -9 27 -15 l22 -12 -2 -592 -3 -592 -70
-12 c-123 -22 -115 -17 -115 -76 0 -48 7 -64 95 -210 l95 -158 0 -715 c0 -393
-1 -714 -2 -714 -2 0 -55 -9 -118 -20 -63 -11 -118 -20 -122 -20 -5 0 -8 -31
-8 -69 0 -68 1 -70 85 -214 l85 -145 0 -730 0 -729 -46 -7 c-26 -3 -64 -6 -84
-6 -21 0 -52 -3 -69 -6 -31 -6 -31 -7 -31 -65 0 -54 7 -74 90 -239 l90 -180 0
-1605 0 -1605 340 0 340 0 0 1600 0 1600 90 180 c85 170 90 183 90 244 0 63 0
64 -31 70 -17 3 -48 6 -69 6 -20 0 -58 3 -84 6 l-46 7 0 727 0 728 85 145 85
145 0 71 c0 39 -3 71 -7 71 -10 0 -181 29 -210 35 l-23 5 0 720 0 719 91 150
c89 148 90 151 87 208 l-3 58 -87 14 -88 14 0 598 c0 330 3 599 8 599 4 0 13
4 21 9 11 7 10 15 -9 41 -21 30 -31 99 -130 989 -59 526 -110 945 -113 931z"/>
<path d="M331 7802 c-73 -658 -86 -761 -104 -786 -16 -23 -17 -30 -6 -37 8 -5
17 -9 22 -9 4 0 7 -213 7 -474 l0 -474 -72 -13 -73 -14 -3 -46 c-3 -42 4 -57
73 -172 l75 -125 -2 -568 -3 -569 -60 -12 c-33 -6 -77 -14 -97 -18 l-38 -6 0
-55 c0 -49 6 -66 70 -175 l70 -120 0 -578 0 -579 -31 -6 c-17 -3 -53 -6 -79
-6 -73 0 -80 -5 -80 -58 0 -37 14 -74 75 -194 l75 -148 0 -1280 0 -1280 270 0
270 0 0 1280 0 1280 75 150 c59 118 75 159 75 194 0 49 -10 56 -86 56 -23 0
-56 3 -73 6 l-31 7 0 580 0 581 70 122 c61 106 70 127 70 171 0 57 15 49 -132
74 l-68 11 0 573 0 574 76 125 c67 111 75 131 72 168 -3 46 3 42 -110 62 l-38
7 0 474 c0 464 0 475 20 485 l20 11 -20 27 c-18 24 -31 122 -104 780 -46 414
-85 754 -87 757 -3 2 -42 -337 -88 -753z"/>
<path d="M10830 8559 c0 -3 -38 -346 -84 -763 -66 -586 -88 -762 -100 -775
-20 -22 -20 -37 -1 -45 13 -5 15 -67 15 -480 l0 -475 -37 -7 c-114 -20 -108
-16 -111 -59 -2 -34 8 -58 73 -167 l75 -127 0 -575 0 -574 -72 -12 c-125 -20
-122 -17 -119 -84 2 -50 11 -71 67 -167 l64 -110 0 -583 0 -583 -31 -7 c-17
-3 -51 -6 -74 -6 -68 0 -75 -6 -75 -61 0 -41 12 -73 70 -189 l70 -140 -2 -325
-3 -324 -245 304 c-240 298 -246 304 -282 304 l-37 1 -4 598 c-4 662 -1 627
-77 867 -188 587 -694 1054 -1397 1290 -10 3 -13 40 -13 139 l0 135 29 17 c48
28 67 83 46 129 l-13 30 -1 -36 c-1 -47 -35 -79 -83 -79 -44 0 -78 36 -78 84
0 24 -3 27 -10 16 -19 -29 -11 -87 16 -119 14 -17 32 -31 40 -31 12 0 14 -24
12 -141 l-3 -141 -115 -42 c-321 -119 -593 -289 -823 -515 -272 -266 -434
-557 -519 -927 -21 -96 -22 -119 -25 -684 l-3 -585 -37 -5 c-34 -5 -54 -27
-349 -390 l-313 -385 -1 -102 c0 -98 1 -102 23 -105 l22 -3 0 -270 0 -270
-117 -3 -118 -3 -20 33 c-11 18 -42 75 -68 125 -26 51 -49 93 -52 93 -3 0 -27
-43 -54 -94 -27 -52 -57 -109 -67 -126 l-19 -30 -262 2 -263 3 0 130 c0 114 3
135 22 170 31 58 86 119 138 152 32 20 45 35 45 51 0 22 -2 22 -137 22 l-138
0 -82 158 c-45 86 -88 165 -95 174 -11 15 -24 -3 -103 -157 l-90 -175 -45 0
-45 0 -82 158 c-45 86 -88 165 -95 174 -11 15 -24 -4 -103 -157 l-90 -175 -45
0 -45 0 -84 160 c-46 87 -88 166 -95 174 -9 13 -28 -17 -101 -159 l-90 -175
-45 0 -45 0 -84 160 c-46 87 -88 166 -95 174 -9 13 -27 -16 -101 -159 l-90
-175 -137 0 c-136 0 -138 0 -138 -22 1 -16 17 -34 56 -61 116 -81 156 -169
152 -333 l-3 -109 -35 0 c-38 0 -35 -4 -143 196 l-29 52 -66 -124 -67 -124
-144 -5 -143 -5 -19 -45 c-28 -71 -25 -84 31 -125 69 -51 116 -109 140 -172
18 -49 20 -78 20 -353 0 -293 0 -300 20 -300 20 0 20 7 20 308 0 303 1 308 24
358 28 61 83 124 143 166 l44 29 49 -36 c69 -51 116 -109 140 -172 18 -49 20
-78 20 -353 0 -293 0 -300 20 -300 20 0 20 7 20 308 0 303 1 308 24 358 28 61
83 124 143 166 l44 29 49 -36 c69 -51 116 -109 140 -172 18 -49 20 -78 20
-353 0 -293 0 -300 20 -300 20 0 20 7 20 308 0 303 1 308 24 358 28 61 83 124
143 166 l44 29 48 -36 c60 -43 103 -92 133 -148 22 -41 23 -52 26 -360 3 -306
4 -317 23 -317 18 0 19 9 19 308 0 303 1 308 24 358 28 61 83 124 143 166 l44
29 48 -36 c60 -43 103 -92 133 -148 22 -41 23 -52 26 -359 3 -307 4 -318 23
-318 18 0 19 9 19 308 0 303 1 308 24 358 28 61 83 124 143 165 l43 30 43 -30
c55 -37 110 -98 139 -153 22 -42 23 -52 26 -360 3 -307 4 -318 23 -318 18 0
19 9 19 308 0 303 1 308 24 358 28 61 83 124 143 165 l43 30 43 -30 c55 -37
110 -98 139 -153 22 -42 23 -52 26 -361 3 -303 4 -317 22 -317 18 0 19 14 22
318 3 308 4 318 26 360 29 55 84 116 139 153 l43 30 43 -30 c55 -37 110 -98
139 -153 22 -42 23 -52 26 -360 3 -304 4 -318 22 -318 18 0 19 14 22 318 3
307 4 318 26 359 25 49 79 113 94 113 6 0 -4 -16 -21 -35 -71 -81 -76 -100
-79 -313 l-4 -192 56 0 56 0 0 -125 0 -125 2390 0 2389 0 3 123 3 122 43 3 42
3 0 178 c0 191 -5 219 -51 289 -16 24 -29 46 -29 49 0 17 49 -43 71 -85 24
-46 24 -51 27 -364 3 -308 3 -318 22 -318 19 0 20 9 20 300 0 277 1 303 21
354 23 63 87 139 148 176 47 29 52 53 21 124 l-19 45 -133 3 -133 3 -27 54
-28 55 0 718 0 718 75 150 c63 125 75 158 75 199 0 55 -7 61 -75 61 -23 0 -57
3 -74 6 l-31 7 0 585 0 585 65 112 c59 101 65 117 65 167 0 64 11 56 -122 79
l-68 11 0 576 0 576 70 117 c62 103 70 123 70 167 l0 50 -47 7 c-27 3 -58 9
-70 12 l-23 5 0 474 c0 425 2 474 16 482 15 8 14 13 -4 48 -18 33 -33 148
-103 784 -44 410 -83 747 -85 749 -2 2 -4 2 -4 0z m-7124 -7119 c110 -83 146
-166 142 -326 l-3 -109 -207 -3 -208 -2 0 122 c0 135 15 185 76 257 34 40 113
100 133 101 8 0 38 -18 67 -40z m456 4 c113 -84 150 -167 146 -330 l-3 -109
-32 -3 c-37 -4 -53 17 -125 163 -23 47 -45 85 -48 85 -3 0 -27 -43 -54 -94
-79 -154 -81 -156 -122 -156 l-36 0 4 133 c4 143 14 175 75 247 32 39 112 99
132 100 7 0 35 -16 63 -36z m460 0 c113 -84 150 -167 146 -330 l-3 -109 -205
0 -205 0 0 130 c0 141 5 159 68 239 34 42 114 105 136 106 7 0 35 -16 63 -36z
m460 0 c113 -84 150 -167 146 -330 l-3 -109 -32 -3 c-37 -4 -53 17 -125 163
-23 47 -45 85 -48 85 -3 0 -27 -43 -54 -94 -79 -155 -82 -158 -119 -154 l-32
3 0 130 c0 141 5 159 68 239 34 42 114 105 136 106 7 0 35 -16 63 -36z"/>
<path d="M3118 797 c-50 -38 -103 -112 -118 -165 -5 -20 -10 -115 -10 -209 l0
-173 190 0 190 0 0 168 c0 188 -10 242 -60 310 -34 47 -104 102 -131 102 -9 0
-37 -15 -61 -33z"/>
<path d="M3578 797 c-50 -38 -103 -112 -118 -165 -5 -20 -10 -115 -10 -209 l0
-173 190 0 190 0 0 168 c0 188 -10 242 -60 310 -34 47 -104 102 -131 102 -9 0
-37 -15 -61 -33z"/>
<path d="M4038 797 c-50 -38 -103 -112 -118 -165 -5 -20 -10 -115 -10 -209 l0
-173 190 0 190 0 0 168 c0 188 -10 242 -60 310 -34 47 -104 102 -131 102 -9 0
-37 -15 -61 -33z"/>
<path d="M4498 797 c-50 -38 -103 -112 -118 -165 -5 -20 -10 -115 -10 -209 l0
-173 190 0 190 0 0 168 c0 188 -10 242 -60 310 -34 47 -104 102 -131 102 -9 0
-37 -15 -61 -33z"/>
<path d="M4958 797 c-50 -38 -103 -112 -118 -165 -5 -20 -10 -115 -10 -209 l0
-173 190 0 190 0 0 173 c0 94 -5 189 -10 209 -22 79 -130 198 -180 198 -10 0
-38 -15 -62 -33z"/>
<path d="M5418 797 c-50 -38 -103 -112 -118 -165 -5 -20 -10 -115 -10 -209 l0
-173 190 0 190 0 0 173 c0 94 -5 189 -10 209 -22 79 -130 198 -180 198 -10 0
-38 -15 -62 -33z"/>
<path d="M5878 797 c-50 -38 -103 -112 -118 -165 -5 -20 -10 -115 -10 -209 l0
-173 190 0 190 0 0 173 c0 94 -5 189 -10 209 -22 79 -130 198 -180 198 -10 0
-38 -15 -62 -33z"/>
</g>
</svg>
