<?xml version="1.0" standalone="no"?>
<!DOCTYPE svg PUBLIC "-//W3C//DTD SVG 20010904//EN"
 "http://www.w3.org/TR/2001/REC-SVG-20010904/DTD/svg10.dtd">
<svg version="1.0" xmlns="http://www.w3.org/2000/svg"
 width="1077.000000pt" height="1280.000000pt" viewBox="0 0 1077.000000 1280.000000"
 preserveAspectRatio="xMidYMid meet">
<metadata>
Created by potrace 1.15, written by Peter Selinger 2001-2017
</metadata>
<g transform="translate(0.000000,1280.000000) scale(0.100000,-0.100000)"
fill="#000000" stroke="none">
<path d="M1396 12708 c-76 -158 -87 -285 -33 -367 58 -87 33 -132 -203 -376
-102 -105 -207 -220 -234 -255 -59 -78 -112 -187 -125 -254 -13 -71 4 -284 34
-411 26 -109 26 -114 32 -645 l5 -535 -56 -23 c-32 -14 -70 -40 -90 -62 -65
-73 -62 -152 17 -395 30 -93 58 -186 62 -205 4 -19 18 -63 31 -97 28 -73 32
-177 9 -243 -23 -64 -77 -131 -139 -170 l-55 -35 -1 -57 c0 -113 51 -293 143
-493 46 -101 50 -116 50 -185 -1 -81 -22 -179 -52 -237 l-18 -37 29 -40 c53
-74 58 -111 63 -492 3 -192 0 -419 -6 -504 -5 -85 -12 -245 -14 -355 -3 -110
-9 -227 -15 -260 -5 -33 -10 -157 -10 -275 0 -118 -4 -262 -10 -320 -11 -117
-29 -733 -40 -1350 -23 -1294 -41 -1862 -63 -2055 l-12 -100 -180 -27 c-218
-33 -342 -71 -436 -134 -38 -25 -71 -49 -73 -53 -3 -4 1 -29 9 -56 18 -58 19
-160 4 -360 -9 -116 -9 -163 0 -207 22 -103 78 -158 179 -178 125 -24 174 -56
208 -135 16 -35 18 -77 18 -342 1 -288 2 -303 21 -329 35 -47 82 -56 240 -49
77 3 1211 8 2520 10 1309 1 2412 6 2450 10 44 4 140 1 255 -10 111 -10 209
-14 245 -10 33 4 1085 6 2338 5 l2277 -1 0 933 0 934 -107 17 c-158 24 -271
34 -631 57 -177 11 -375 27 -440 35 -64 8 -173 15 -242 15 -239 0 -649 39
-702 66 -63 33 -62 92 7 267 33 85 47 137 51 185 6 90 18 154 53 281 51 186
53 208 46 425 -7 229 -20 315 -71 465 -80 239 -241 484 -516 781 -253 275
-472 469 -833 740 -394 295 -802 538 -1169 695 -61 25 -120 57 -132 70 -12 13
-44 35 -71 49 -296 150 -345 268 -180 439 67 69 80 106 75 200 -8 160 -146
337 -262 337 -59 0 -166 -159 -166 -247 0 -42 22 -103 38 -103 26 -1 32 -17
17 -46 -20 -38 -13 -67 43 -189 67 -145 62 -214 -22 -304 l-31 -34 45 7 c69 9
28 -8 -90 -39 -200 -52 -337 -103 -385 -145 -11 -9 -94 -55 -185 -102 -368
-190 -697 -414 -1046 -713 -359 -307 -910 -899 -1037 -1114 -58 -97 -110 -215
-132 -297 -21 -77 -38 -348 -32 -494 9 -186 40 -334 158 -745 68 -237 77 -290
59 -335 -22 -53 -56 -63 -245 -72 -93 -5 -199 -11 -235 -14 -79 -6 -117 13
-145 72 -17 35 -19 68 -21 359 -1 176 -7 397 -14 490 -6 94 -13 328 -15 520
-4 406 -22 961 -35 1120 -6 61 -10 193 -10 295 0 247 -16 722 -41 1235 -11
231 -23 621 -26 866 -6 438 -5 447 16 508 28 80 40 212 39 437 l0 181 46 134
c50 147 66 228 66 332 0 78 -17 157 -34 157 -33 0 -91 25 -121 51 -41 36 -55
92 -44 173 8 65 98 361 136 451 35 81 42 193 18 266 -10 30 -49 115 -87 189
l-69 135 6 370 c8 495 21 685 62 874 20 95 13 177 -25 275 -41 106 -118 214
-293 416 -171 198 -212 251 -259 333 l-32 57 35 40 c63 69 61 120 -8 284 -23
58 -46 118 -50 135 -5 24 -12 31 -31 31 -20 0 -30 -14 -68 -92z m654 -2788
c-7 -17 -15 -28 -18 -26 -2 3 1 19 8 36 7 17 15 28 18 26 2 -3 -1 -19 -8 -36z
m-548 -617 c50 -92 78 -204 78 -307 -1 -168 -74 -232 -199 -176 l-44 20 6 134
c4 73 14 165 22 202 19 82 74 206 89 201 6 -2 27 -35 48 -74z m549 -199 c-9
-28 -9 -29 -10 -3 -1 14 2 29 6 32 11 12 13 2 4 -29z"/>
<path d="M1818 12577 c-48 -120 -58 -159 -58 -233 0 -52 4 -67 31 -103 34 -47
47 -48 69 -5 12 23 15 66 13 204 0 96 -5 187 -10 202 -7 26 -11 21 -45 -65z"/>
<path d="M5631 10816 c-28 -99 -33 -132 -29 -187 7 -88 27 -121 71 -117 22 2
35 11 44 28 27 54 6 257 -36 355 l-17 40 -33 -119z"/>
<path d="M5729 9821 c-13 -11 -20 -23 -16 -27 4 -4 17 2 29 14 28 28 18 38
-13 13z"/>
<path d="M2290 5362 c0 -10 21 -32 32 -32 16 0 8 19 -12 30 -11 6 -20 7 -20 2z"/>
<path d="M2332 5285 c0 -16 2 -22 5 -12 2 9 2 23 0 30 -3 6 -5 -1 -5 -18z"/>
</g>
</svg>
