<?xml version="1.0" standalone="no"?>
<!DOCTYPE svg PUBLIC "-//W3C//DTD SVG 20010904//EN"
 "http://www.w3.org/TR/2001/REC-SVG-20010904/DTD/svg10.dtd">
<svg version="1.0" xmlns="http://www.w3.org/2000/svg"
 width="903.000000pt" height="1280.000000pt" viewBox="0 0 903.000000 1280.000000"
 preserveAspectRatio="xMidYMid meet">
<metadata>
Created by potrace 1.15, written by Peter Selinger 2001-2017
</metadata>
<g transform="translate(0.000000,1280.000000) scale(0.100000,-0.100000)"
fill="#000000" stroke="none">
<path d="M4605 11930 c-435 -10 -727 -28 -745 -46 -12 -12 -11 -23 8 -83 12
-38 27 -106 33 -152 6 -46 21 -124 32 -174 16 -68 22 -123 22 -225 0 -74 -3
-147 -8 -162 -10 -37 -51 -75 -112 -104 -42 -20 -65 -24 -148 -24 -186 0 -287
40 -375 151 -99 124 -105 129 -154 129 -56 0 -63 -7 -117 -138 -71 -168 -121
-235 -284 -376 -193 -167 -329 -493 -392 -941 -36 -260 -43 -1720 -9 -1875 8
-36 17 -126 21 -201 5 -123 3 -144 -16 -210 -45 -148 -99 -223 -350 -484 -168
-175 -236 -267 -341 -464 -112 -210 -159 -359 -256 -821 -66 -312 -90 -615
-63 -793 13 -84 79 -396 116 -547 33 -138 166 -497 254 -685 127 -273 372
-746 535 -1030 89 -154 176 -307 194 -340 59 -106 364 -607 427 -700 77 -115
117 -195 139 -278 18 -65 18 -69 -1 -134 -31 -110 -31 -160 0 -239 31 -78 65
-119 145 -174 189 -129 478 -224 850 -279 320 -47 444 -53 735 -36 338 19 449
38 737 121 11 3 18 -2 20 -18 4 -21 5 -21 26 13 16 26 37 41 79 59 152 62 189
86 270 180 43 50 83 105 90 123 20 56 14 154 -16 252 l-28 90 101 105 c118
123 191 223 271 375 32 61 88 155 123 210 294 455 615 1027 918 1640 170 342
176 357 273 650 99 297 159 523 181 683 19 132 8 584 -19 752 -61 381 -108
557 -205 762 -50 108 -178 313 -254 408 -88 110 -336 348 -473 456 -192 149
-313 225 -544 339 -203 100 -297 139 -519 215 -135 45 -355 147 -441 202 -59
38 -82 67 -97 121 -11 44 -10 54 10 112 39 112 28 183 -51 341 -24 49 -47 103
-51 119 -3 17 -8 179 -11 360 -3 182 -10 470 -15 640 -5 171 -10 481 -10 690
0 209 -6 486 -12 615 -14 286 -14 285 -1 495 7 116 15 182 26 209 22 50 22 93
0 105 -30 15 -202 19 -518 11z m-1149 -1305 c73 -13 101 -24 153 -57 141 -93
315 -404 356 -639 26 -147 36 -416 29 -769 -7 -372 -1 -340 -88 -495 -44 -78
-51 -96 -51 -146 0 -42 7 -69 27 -105 16 -31 28 -74 33 -116 6 -60 4 -70 -17
-101 -43 -63 -119 -114 -248 -165 -41 -17 -127 -55 -190 -85 -103 -49 -229
-92 -374 -126 -58 -14 -144 -6 -201 19 -22 9 -62 37 -88 61 -47 43 -49 46 -58
119 -5 41 -18 278 -29 525 -12 248 -25 531 -31 630 -16 266 -6 605 20 725 64
290 147 469 276 593 45 44 172 115 245 138 42 12 143 10 236 -6z"/>
</g>
</svg>
