<?xml version="1.0" standalone="no"?>
<!DOCTYPE svg PUBLIC "-//W3C//DTD SVG 20010904//EN"
 "http://www.w3.org/TR/2001/REC-SVG-20010904/DTD/svg10.dtd">
<svg version="1.0" xmlns="http://www.w3.org/2000/svg"
 width="1280.000000pt" height="865.000000pt" viewBox="0 0 1280.000000 865.000000"
 preserveAspectRatio="xMidYMid meet">
<metadata>
Created by potrace 1.15, written by Peter Selinger 2001-2017
</metadata>
<g transform="translate(0.000000,865.000000) scale(0.100000,-0.100000)"
fill="#000000" stroke="none">
<path d="M6365 8279 l-470 -180 -470 42 c-258 23 -491 43 -516 43 l-45 1 -284
-320 c-156 -176 -309 -348 -339 -381 l-56 -61 -464 -192 c-256 -105 -468 -194
-471 -198 -6 -7 -181 -709 -233 -931 -11 -49 -39 -86 -340 -448 l-329 -394
122 -496 122 -495 -107 -500 -107 -499 33 -38 c19 -20 171 -192 339 -381 l305
-345 132 -475 c73 -262 133 -481 133 -488 0 -7 8 -17 18 -22 9 -5 226 -88 482
-185 l465 -176 60 -65 c33 -36 188 -202 345 -370 224 -238 290 -304 310 -304
14 0 243 26 510 59 l485 59 477 -164 c262 -91 481 -165 487 -165 6 0 199 130
428 288 l418 288 385 58 c438 66 622 94 625 98 1 2 107 205 236 451 l234 448
412 302 412 302 1 511 0 512 224 458 224 459 -58 110 c-31 61 -138 265 -238
455 l-180 345 -11 440 c-6 242 -14 472 -17 510 l-5 70 -418 288 -418 288 -248
440 c-136 241 -252 442 -258 446 -5 3 -236 34 -511 67 l-501 62 -428 277
c-235 152 -429 277 -430 277 -1 -1 -213 -82 -472 -181z"/>
</g>
</svg>
