<?xml version="1.0" standalone="no"?>
<!DOCTYPE svg PUBLIC "-//W3C//DTD SVG 20010904//EN"
 "http://www.w3.org/TR/2001/REC-SVG-20010904/DTD/svg10.dtd">
<svg version="1.0" xmlns="http://www.w3.org/2000/svg"
 width="905.000000pt" height="1280.000000pt" viewBox="0 0 905.000000 1280.000000"
 preserveAspectRatio="xMidYMid meet">
<metadata>
Created by potrace 1.15, written by Peter Selinger 2001-2017
</metadata>
<g transform="translate(0.000000,1280.000000) scale(0.100000,-0.100000)"
fill="#000000" stroke="none">
<path d="M4433 10289 l-43 -30 -44 26 -45 26 -24 -38 c-13 -21 -133 -213 -267
-428 -133 -214 -243 -391 -244 -392 -1 -1 -175 98 -386 220 -212 123 -410 237
-441 255 l-56 32 -24 -45 -24 -46 -52 7 -52 6 -5 -33 c-4 -19 -29 -196 -56
-394 -75 -538 -81 -575 -94 -575 -6 0 -182 18 -391 40 -585 62 -595 63 -601
57 -4 -3 -9 -27 -11 -52 -5 -44 -7 -46 -49 -56 -25 -6 -46 -15 -49 -19 -3 -4
58 -224 134 -489 l139 -482 -23 -9 c-13 -5 -228 -75 -477 -156 -249 -80 -456
-148 -460 -150 -4 -3 0 -25 9 -51 l16 -46 -37 -34 c-22 -20 -34 -39 -29 -46 6
-11 195 -238 525 -630 60 -71 108 -132 108 -136 0 -5 -167 -158 -370 -342
-204 -183 -370 -336 -370 -340 0 -5 14 -24 31 -43 l30 -35 -21 -42 c-12 -23
-18 -45 -13 -50 5 -5 209 -106 453 -225 245 -119 446 -218 447 -219 2 -1 -89
-208 -202 -460 -113 -252 -205 -462 -205 -465 0 -4 20 -15 45 -24 l45 -18 0
-54 c0 -52 1 -54 28 -54 15 0 209 -7 432 -15 223 -8 438 -15 478 -15 l72 0 0
-510 0 -510 54 0 53 0 17 -45 c10 -25 22 -45 27 -45 6 0 217 84 470 186 254
102 464 182 468 178 4 -5 97 -211 206 -457 109 -247 202 -450 206 -453 4 -2
27 5 50 16 l44 19 38 -37 c32 -31 39 -34 51 -22 175 188 683 705 692 705 6 0
162 -135 345 -300 184 -165 351 -315 372 -334 l37 -34 34 39 34 39 47 -18 c27
-9 50 -16 51 -14 2 2 80 214 174 472 94 258 172 471 175 473 3 3 890 -281 951
-305 7 -3 19 16 29 46 l17 51 50 0 51 0 -6 113 c-4 61 -16 238 -27 392 -11
154 -23 332 -26 396 l-7 116 39 6 c21 3 248 27 503 53 l463 49 -4 51 -4 51 43
24 c24 13 43 26 43 29 0 3 -106 205 -236 449 -129 244 -234 444 -232 446 2 1
199 116 440 254 l436 252 -25 45 c-23 42 -24 46 -9 67 49 68 83 32 -340 362
-212 165 -391 305 -400 311 -13 10 31 75 281 418 162 223 295 409 295 413 0 5
-18 20 -39 35 l-39 28 13 50 13 50 -26 7 c-15 4 -236 59 -492 123 -350 88
-465 120 -463 131 1 8 48 229 104 493 77 365 98 480 89 486 -7 4 -30 11 -51
14 -37 6 -39 7 -45 56 -4 28 -12 50 -18 50 -6 0 -231 -39 -499 -86 -269 -47
-490 -84 -492 -82 -1 1 -50 224 -107 493 -89 413 -108 490 -122 489 -9 -1 -32
-5 -51 -8 -32 -6 -36 -4 -61 34 -15 23 -33 39 -39 36 -7 -2 -196 -129 -421
-280 -387 -261 -409 -275 -425 -259 -12 13 -451 615 -583 800 -1 0 -20 -12
-43 -28z"/>
</g>
</svg>
