<?xml version="1.0" standalone="no"?>
<!DOCTYPE svg PUBLIC "-//W3C//DTD SVG 20010904//EN"
 "http://www.w3.org/TR/2001/REC-SVG-20010904/DTD/svg10.dtd">
<svg version="1.0" xmlns="http://www.w3.org/2000/svg"
 width="1280.000000pt" height="865.000000pt" viewBox="0 0 1280.000000 865.000000"
 preserveAspectRatio="xMidYMid meet">
<metadata>
Created by potrace 1.15, written by Peter Selinger 2001-2017
</metadata>
<g transform="translate(0.000000,865.000000) scale(0.100000,-0.100000)"
fill="#000000" stroke="none">
<path d="M5985 8044 c-232 -120 -242 -124 -290 -119 -27 2 -151 16 -274 31
l-223 26 -37 -35 c-20 -19 -111 -103 -202 -188 l-166 -154 -253 -39 c-140 -21
-261 -41 -270 -43 -9 -3 -80 -109 -158 -237 l-142 -233 -245 -113 c-135 -62
-249 -120 -254 -129 -4 -9 -39 -128 -77 -265 l-69 -249 -208 -176 -207 -176 0
-273 0 -274 -155 -229 -155 -230 74 -265 74 -264 -84 -252 c-46 -139 -84 -258
-84 -264 0 -6 63 -115 141 -242 l140 -231 -11 -228 c-6 -125 -12 -247 -14
-271 l-4 -43 202 -190 202 -190 59 -261 c33 -144 65 -266 70 -271 6 -5 116
-64 245 -131 l234 -121 131 -240 131 -240 270 -57 269 -56 190 -197 191 -197
273 20 274 20 237 -138 237 -138 259 92 c256 92 259 93 304 80 189 -53 483
-123 493 -117 7 4 103 71 213 149 111 78 211 147 222 153 13 7 98 11 229 12
114 1 235 4 269 8 l61 6 158 195 c87 107 163 201 170 208 7 8 128 49 270 92
142 44 262 83 265 87 4 4 50 107 103 228 52 121 100 231 106 245 8 17 89 74
241 170 182 115 230 150 234 170 2 14 19 135 37 270 30 222 35 248 58 276 15
17 97 111 184 207 l159 177 -38 270 -37 270 118 242 c65 134 118 248 118 253
0 6 -48 121 -107 257 l-106 247 50 267 50 268 -38 47 c-20 26 -98 123 -173
216 l-136 168 -11 125 c-6 69 -17 190 -23 268 -12 143 -13 144 -43 168 -17 13
-119 86 -226 161 l-194 138 -97 255 -96 255 -259 92 c-159 57 -264 99 -271
110 -7 10 -79 108 -161 218 l-147 200 -65 7 c-36 5 -160 14 -276 22 l-211 14
-213 166 c-117 91 -220 166 -229 166 -9 -1 -131 -25 -271 -54 l-255 -53 -254
103 c-139 57 -254 104 -255 104 0 -1 -109 -57 -241 -126z"/>
</g>
</svg>
