<svg xmlns="http://www.w3.org/2000/svg" xmlns:xlink="http://www.w3.org/1999/xlink" width="230" height="44.954" viewBox="0 0 230 44.954"><defs><style>.a{fill:#5d6a76;}.b{fill:url(#a);}.c{fill:#005f90;}.d{fill:#0089c7;}.e{fill:url(#b);}</style><linearGradient id="a" y1="0.5" x2="1" y2="0.5" gradientUnits="objectBoundingBox"><stop offset="0" stop-color="#495965" stop-opacity="0"/><stop offset="0.148" stop-color="#4c5b67" stop-opacity="0.161"/><stop offset="0.729" stop-color="#586571" stop-opacity="0.765"/><stop offset="1" stop-color="#5d6a76"/></linearGradient><linearGradient id="b" x1="0.049" y1="0.704" x2="1.073" y2="0.099" gradientUnits="objectBoundingBox"><stop offset="0" stop-color="#5d6a76"/><stop offset="0.212" stop-color="#9da5ac"/><stop offset="0.409" stop-color="#d2d5d9"/><stop offset="0.557" stop-color="#f2f3f4"/><stop offset="0.638" stop-color="#fff"/><stop offset="1" stop-color="#5d6a76"/></linearGradient></defs><g transform="translate(227.203 41.723)"><path class="a" d="M439.779,81.362l-.234,1.208h-.933l.233-1.208Z" transform="translate(-438.612 -81.362)"/></g><g transform="translate(31.151 42.349)"><rect class="b" width="138.697" height="0.556"/></g><g transform="translate(0)"><path class="c" d="M213.119,18.664c0,1.585-.578,2.291-1.875,2.291s-1.874-.706-1.874-2.291V1h-4.436V18.5c0,3.992,2.359,6.375,6.311,6.375s6.312-2.384,6.312-6.375V1h-4.437Z" transform="translate(-99.054 -1)"/><path class="c" d="M244.4,19.6l-3.65-9.984h-3.3V28.727h3.28V17.794l3.831,10.933h3.123V9.62H244.4Z" transform="translate(-114.687 -5.144)"/><rect class="c" width="3.593" height="19.107" transform="translate(138.275 4.475)"/><path class="c" d="M288.031,21.887l-2.2-12.267h-3.553l4,19.107h3.521l4-19.107h-3.554Z" transform="translate(-136.24 -5.144)"/><path class="c" d="M315.7,20.425h4.151V17.247H315.7V12.8h5.4V9.62h-8.989V28.727h9.352V25.549H315.7Z" transform="translate(-150.584 -5.144)"/><path class="c" d="M349.646,15.334c0-3.951-1.738-5.714-5.636-5.714h-4.7V28.727H342.9v-7.68c.494,0,.986-.027,1.336-.061l2.278,7.742h3.668l-2.753-8.573C348.475,19.618,349.646,18.346,349.646,15.334ZM342.9,12.642h.952c1.49,0,2.2.4,2.2,2.692s-.71,2.691-2.2,2.691H342.9Z" transform="translate(-163.663 -5.145)"/><path class="c" d="M372.64,17.518c-1.415-1.2-2.637-2.242-2.637-3.566,0-.755.247-1.655,1.421-1.655.413,0,1.387.186,1.525,1.9l.016.192,3.44-.378-.02-.186c-.314-2.9-2.094-4.707-4.649-4.707-3.285,0-5.169,1.77-5.169,4.858,0,3.021,2.012,4.7,3.786,6.177,1.477,1.231,2.752,2.293,2.752,3.889,0,.969-.613,1.525-1.681,1.525-.985,0-1.616-.967-1.732-2.653l-.015-.2-3.431.494.008.17c.172,3.708,2.643,5.368,5.014,5.368,3.252,0,5.272-1.911,5.272-4.987C376.54,20.835,374.468,19.073,372.64,17.518Z" transform="translate(-176.615 -4.905)"/><path class="c" d="M395.628,9.62l-3.52,19.107h3.5l.571-4.151h3.2l.572,4.151h3.5L399.936,9.62ZM398.859,21.4H396.7l1.077-6.815Z" transform="translate(-189.05 -5.145)"/><path class="c" d="M425.556,25.549V9.62h-3.592V28.727h8.652V25.549Z" transform="translate(-203.405 -5.144)"/><path class="d" d="M87.282,9.608H83.689v7.777q1.786-.043,3.593-.045Z" transform="translate(-40.758 -5.139)"/><path class="d" d="M83.689,39.172h8.652V35.994H87.282V31.356q-1.82.14-3.593.326Z" transform="translate(-40.758 -15.596)"/><path class="d" d="M108.144,30.544v8.229H116.8V35.6h-5.06V30.537c-.431,0-.861-.01-1.3-.01Q109.287,30.527,108.144,30.544Z" transform="translate(-52.516 -15.197)"/><path class="d" d="M111.736,9.608h-3.592v8q1.814.109,3.592.261Z" transform="translate(-52.516 -5.139)"/><path class="d" d="M136.372,9.608H132.78V18.99q1.839.3,3.592.644Z" transform="translate(-64.361 -5.139)"/><path class="d" d="M132.78,39.116h3.592V31.539q-1.776-.173-3.592-.3Z" transform="translate(-64.361 -15.54)"/><path class="d" d="M153.949,20.413H158.1V17.236h-4.151v-4.45h5.4V9.608h-8.988V28.715h9.351V25.538h-5.759Z" transform="translate(-72.813 -5.139)"/><path class="d" d="M181.071,9.608H176.11V28.715h4.961c3.5,0,5.272-1.966,5.272-5.844v-7.42C186.344,11.574,184.569,9.608,181.071,9.608Zm1.68,13.653c0,1.864-.5,2.432-2.122,2.432H179.7V12.63h.927c1.626,0,2.122.569,2.122,2.433Z" transform="translate(-85.195 -5.139)"/><path class="d" d="M59.105,7.043l.767,6.769q1.922-.176,3.9-.3L61.733,1.027H56.475L54.288,14.445q1.977-.27,4.03-.482Z" transform="translate(-26.622 -1.013)"/><path class="d" d="M66.76,40.134h4.483l-1.128-6.919q-2.081.308-4.063.679Z" transform="translate(-32.278 -16.489)"/><path class="d" d="M51.08,41.258h4.483l.648-5.7q-2.279.5-4.377,1.08Z" transform="translate(-25.079 -17.614)"/><g transform="translate(0 12.701)"><path class="e" d="M12.257,41.95c0-7.93,20.894-14.36,46.668-14.36a141.377,141.377,0,0,1,18.525,1.178,124.037,124.037,0,0,0-29.782-3.3C21.894,25.464,1,31.893,1,39.823,1,45.727,12.586,50.8,29.142,53,18.827,50.371,12.257,46.4,12.257,41.95Z" transform="translate(-1 -25.464)"/></g><g transform="translate(226.013 3.587)"><path class="c" d="M436.32,9.958a1.994,1.994,0,1,1,3.987,0,1.994,1.994,0,1,1-3.987,0Zm3.589,0a1.6,1.6,0,1,0-3.2,0,1.6,1.6,0,1,0,3.2,0Zm-1.063,1.114-.451-.91h-.433v.91h-.417V8.758h.765c.57,0,.919.2.919.681a.624.624,0,0,1-.434.612l.528,1.021Zm-.518-1.259c.272,0,.493-.076.493-.366s-.239-.331-.485-.331h-.374v.7Z" transform="translate(-436.32 -7.908)"/></g></g><g transform="translate(172.794 33.729)"><g transform="translate(0 0)"><path class="a" d="M338.658,66.2l-.186.821H336.63l-1.8,8.164h-.971l1.8-8.164h-1.842L334,66.2Z" transform="translate(-333.817 -66.08)"/><path class="a" d="M343.214,66.2h.9l-.709,3.224a2.967,2.967,0,0,1,1.593-.834c.9,0,1.319.5,1.046,1.693l-1.082,4.9h-.9l1.058-4.779c.162-.747.013-1.071-.472-1.071a2.228,2.228,0,0,0-1.406.8l-1.12,5.053h-.9Z" transform="translate(-337.377 -66.08)"/><path class="a" d="M352.541,74.317l-.075.361c-.361,1.58-.112,2.1.734,2.1.685,0,1.108-.635,1.357-1.22l.822.1a2.734,2.734,0,0,1-2.465,1.867c-1.357,0-1.754-1.021-1.232-3.361s1.357-3.36,2.713-3.36,1.717,1.22,1.306,3.087l-.1.423Zm2.327-.747c.286-1.393.174-2.017-.634-2.017-.648,0-1.17.473-1.531,2.017Z" transform="translate(-342.3 -68.293)"/><path class="a" d="M361.994,70.932h.9l-.174.785h.024a2.1,2.1,0,0,1,1.842-.909l-.187.846a2.216,2.216,0,0,0-1.916,1.145l-1.021,4.6h-.9Z" transform="translate(-346.677 -68.293)"/><path class="a" d="M369,74.317l-.075.361c-.361,1.58-.112,2.1.734,2.1.685,0,1.108-.635,1.357-1.22l.821.1a2.733,2.733,0,0,1-2.464,1.867c-1.357,0-1.755-1.021-1.232-3.361s1.356-3.36,2.713-3.36,1.718,1.22,1.307,3.087l-.1.423Zm2.328-.747c.286-1.393.174-2.017-.635-2.017-.647,0-1.169.473-1.53,2.017Z" transform="translate(-350.216 -68.293)"/><path class="a" d="M383.549,68.6h1l.3-1.319a1.449,1.449,0,0,1,1.605-1.32,3.841,3.841,0,0,1,.685.075l-.15.7a1.048,1.048,0,0,0-.474-.1.771.771,0,0,0-.783.684l-.286,1.282h1.046l-.162.747h-1.046l-1.268,5.725h-.9l1.269-5.725h-1Z" transform="translate(-357.519 -65.965)"/><path class="a" d="M392.163,70.807c1.357,0,1.755,1.021,1.245,3.36s-1.37,3.361-2.725,3.361-1.755-1.021-1.233-3.361S390.807,70.807,392.163,70.807Zm-1.319,5.974c.759,0,1.194-.473,1.667-2.614s.249-2.614-.51-2.614-1.182.473-1.656,2.614S390.085,76.781,390.845,76.781Z" transform="translate(-360.46 -68.293)"/><path class="a" d="M399.283,70.932h.9l-.173.785h.024a2.1,2.1,0,0,1,1.842-.909l-.187.846a2.217,2.217,0,0,0-1.916,1.145l-1.021,4.6h-.9Z" transform="translate(-364.606 -68.293)"/><path class="a" d="M411.265,71.047,411.39,76h.025l2.091-4.954h.921l-2.887,6.335c-.647,1.418-1.456,2.252-2.539,2.252h-.461l.174-.747h.273c.71,0,1.282-.51,1.656-1.418l-.3-6.422Z" transform="translate(-369.745 -68.408)"/><path class="a" d="M422.407,70.807c1.357,0,1.755,1.021,1.245,3.36s-1.369,3.361-2.726,3.361-1.755-1.021-1.232-3.361S421.051,70.807,422.407,70.807Zm-1.318,5.974c.759,0,1.194-.473,1.667-2.614s.249-2.614-.51-2.614-1.183.473-1.655,2.614S420.329,76.781,421.089,76.781Z" transform="translate(-375.001 -68.293)"/><path class="a" d="M432.223,77.519h-.846l.161-.71a3.348,3.348,0,0,1-1.655.834c-.9,0-1.307-.5-1.046-1.693l1.083-4.9h.9l-1.058,4.779c-.162.747-.013,1.071.472,1.071a2.231,2.231,0,0,0,1.406-.8l1.12-5.053h.9Z" transform="translate(-379.467 -68.408)"/></g><g transform="translate(54.688 7.94)"><path class="a" d="M440.458,81.258l-.261,1.17h-1.046l.261-1.17Z" transform="translate(-439.151 -81.258)"/></g></g></svg>