<?xml version="1.0" encoding="UTF-8" standalone="no"?>
<!-- Created with Inkscape (http://www.inkscape.org/) -->
<svg
   xmlns:dc="http://purl.org/dc/elements/1.1/"
   xmlns:cc="http://web.resource.org/cc/"
   xmlns:rdf="http://www.w3.org/1999/02/22-rdf-syntax-ns#"
   xmlns:svg="http://www.w3.org/2000/svg"
   xmlns="http://www.w3.org/2000/svg"
   xmlns:sodipodi="http://sodipodi.sourceforge.net/DTD/sodipodi-0.dtd"
   xmlns:inkscape="http://www.inkscape.org/namespaces/inkscape"
   height="380.84689"
   id="svg10395"
   inkscape:version="0.45"
   sodipodi:docbase="C:\Documents and Settings\Jordan\Desktop"
   sodipodi:docname="Eagle_01.svg"
   sodipodi:version="0.32"
   width="317.05008"
   inkscape:output_extension="org.inkscape.output.svg.inkscape"
   sodipodi:modified="true"
   version="1.0">
  <metadata
     id="metadata2212">
    <rdf:RDF>
      <cc:Work
         rdf:about="">
        <dc:title>eagle</dc:title>
        <dc:description />
        <dc:subject>
          <rdf:Bag>
            <rdf:li />
            <rdf:li>symbol</rdf:li>
            <rdf:li>fly</rdf:li>
            <rdf:li>signs_and_symbols</rdf:li>
            <rdf:li>bird</rdf:li>
            <rdf:li>flight</rdf:li>
            <rdf:li>animal</rdf:li>
            <rdf:li>eagle</rdf:li>
            <rdf:li>wildlife</rdf:li>
          </rdf:Bag>
        </dc:subject>
        <dc:publisher>
          <cc:Agent
             rdf:about="http://www.openclipart.org">
            <dc:title>Jason Knight</dc:title>
          </cc:Agent>
        </dc:publisher>
        <dc:creator>
          <cc:Agent>
            <dc:title>Jason Knight</dc:title>
          </cc:Agent>
        </dc:creator>
        <dc:rights>
          <cc:Agent>
            <dc:title>Jason Knight</dc:title>
          </cc:Agent>
        </dc:rights>
        <dc:date />
        <dc:format>image/svg+xml</dc:format>
        <dc:type
           rdf:resource="http://purl.org/dc/dcmitype/StillImage" />
        <cc:license
           rdf:resource="http://web.resource.org/cc/PublicDomain" />
        <dc:language>en</dc:language>
      </cc:Work>
      <cc:License
         rdf:about="http://web.resource.org/cc/PublicDomain">
        <cc:permits
           rdf:resource="http://web.resource.org/cc/Reproduction" />
        <cc:permits
           rdf:resource="http://web.resource.org/cc/Distribution" />
        <cc:permits
           rdf:resource="http://web.resource.org/cc/DerivativeWorks" />
      </cc:License>
    </rdf:RDF>
  </metadata>
  <defs
     id="defs10397">
    <linearGradient
       id="linearGradient11775">
      <stop
         id="stop11776"
         offset="0"
         style="stop-color:#000;stop-opacity:1;" />
      <stop
         id="stop11777"
         offset="1"
         style="stop-color:#fff;stop-opacity:1;" />
    </linearGradient>
    <marker
       id="Club"
       inkscape:stockid="Club"
       orient="auto"
       refX="0"
       refY="0"
       style="overflow:visible">
      <path
         d="M -1.5971367,-7.0977635 C -3.4863874,-7.0977635 -5.0235187,-5.5606321 -5.0235187,-3.6713813 C -5.0235187,-3.0147015 -4.7851656,-2.4444556 -4.4641095,-1.9232271 C -4.5028609,-1.8911157 -4.5437814,-1.8647646 -4.5806531,-1.8299921 C -5.2030765,-2.6849849 -6.1700514,-3.275133 -7.307773,-3.275133 C -9.1970245,-3.2751331 -10.734155,-1.7380016 -10.734155,0.15124914 C -10.734155,2.0404999 -9.1970245,3.5776313 -7.307773,3.5776313 C -6.3143268,3.5776313 -5.439154,3.1355702 -4.8137404,2.4588126 C -4.9384274,2.8137041 -5.0235187,3.1803 -5.0235187,3.5776313 C -5.0235187,5.4668819 -3.4863874,7.0040135 -1.5971367,7.0040135 C 0.29211394,7.0040135 1.8292454,5.4668819 1.8292454,3.5776313 C 1.8292454,2.7842354 1.5136868,2.0838028 1.0600576,1.503155 C 2.4152718,1.7663868 3.7718375,2.2973711 4.7661444,3.8340272 C 4.0279463,3.0958289 3.5540908,1.7534117 3.5540908,-0.058529361 L 2.9247554,-0.10514681 L 3.5074733,-0.12845553 C 3.5074733,-1.9403966 3.9580199,-3.2828138 4.6962183,-4.0210121 C 3.7371277,-2.5387813 2.4390549,-1.9946496 1.1299838,-1.7134486 C 1.5341802,-2.2753578 1.8292454,-2.9268556 1.8292454,-3.6713813 C 1.8292454,-5.5606319 0.29211394,-7.0977635 -1.5971367,-7.0977635 z "
         id="path1015"
         style="fill-rule:evenodd;stroke:#000000;stroke-width:0.74587913pt;marker-start:none"
         transform="scale(0.6,0.6)" />
    </marker>
    <marker
       id="SemiCircleIn"
       inkscape:stockid="SemiCircleIn"
       orient="auto"
       refX="0"
       refY="0"
       style="overflow:visible">
      <path
         d="M -0.37450702,-0.04569258 C -0.37450702,2.7143074 1.865493,4.9543074 4.625493,4.9543074 L 4.625493,-5.0456926 C 1.865493,-5.0456926 -0.37450702,-2.8056926 -0.37450702,-0.04569258 z "
         id="path941"
         sodipodi:nodetypes="cccc"
         style="fill-rule:evenodd;stroke:#000000;stroke-width:1pt;marker-start:none;marker-end:none"
         transform="scale(0.6,0.6)" />
    </marker>
    <marker
       id="Dot_s"
       inkscape:stockid="Dot_s"
       orient="auto"
       refX="0"
       refY="0"
       style="overflow:visible">
      <path
         d="M -2.5,-1 C -2.5,1.76 -4.74,4 -7.5,4 C -10.26,4 -12.5,1.76 -12.5,-1 C -12.5,-3.76 -10.26,-6 -7.5,-6 C -4.74,-6 -2.5,-3.76 -2.5,-1 z "
         id="path933"
         style="fill-rule:evenodd;stroke:#000000;stroke-width:1pt;marker-start:none;marker-end:none"
         transform="matrix(0.2,0,0,0.2,1.4250986,0.2)" />
    </marker>
  </defs>
  <sodipodi:namedview
     bordercolor="#666666"
     borderopacity="1.0"
     id="base"
     inkscape:cx="299.63095"
     inkscape:cy="731.91462"
     inkscape:pageopacity="0.0"
     inkscape:pageshadow="2"
     inkscape:window-height="778"
     inkscape:window-width="1279"
     inkscape:window-x="0"
     inkscape:window-y="0"
     inkscape:zoom="0.35037046"
     pagecolor="#ffffff"
     inkscape:current-layer="svg10395" />
  <path
     d="M 22.401983,316.4654 C 25.058503,314.25163 29.043283,311.15236 34.356323,311.59511 C 39.669363,312.03787 51.623713,312.92337 56.051243,312.03787 C 60.478773,311.15236 64.020803,312.48062 65.349063,308.93859 C 66.677323,305.39657 67.120073,293.88498 70.662103,289.45744 C 74.204133,285.02991 83.944703,280.15962 85.272963,275.73209 C 86.601223,271.30456 87.043983,269.53354 85.272963,265.10601 C 83.501953,260.67847 79.517173,256.69369 73.761373,254.03717 C 68.005583,251.38065 62.692543,249.60964 62.692543,249.60964 C 62.692543,249.60964 51.180953,260.23572 50.738203,262.89224 C 50.295453,265.54876 51.623713,268.20528 48.967183,269.53354 C 46.310663,270.8618 41.883133,266.87702 40.997623,259.79297 C 40.112123,252.70891 43.211393,244.2966 42.768643,239.42631 C 42.325883,234.55602 39.226613,230.12849 41.883133,225.2582 C 44.539653,220.38792 50.738203,212.86111 55.608493,209.31908 C 60.478773,205.77706 68.891093,205.3343 70.219353,200.90677 C 71.547613,196.47923 61.807033,179.65461 61.807033,175.66982 C 61.807033,171.68504 63.135293,164.15824 60.036023,157.95969 C 56.936753,151.76114 53.394723,138.47853 40.112123,130.06622 C 26.829523,121.6539 17.531693,118.11188 15.317933,111.91333 C 13.104163,105.71478 14.875173,105.71478 17.531693,103.94377 C 20.188213,102.17275 10.447643,91.989432 7.3483726,82.248862 C 4.2490928,72.508282 -1.0639472,53.027132 1.1498228,51.256112 C 3.3635928,49.485102 10.004893,51.256112 11.333153,54.798142 C 12.661413,58.340172 17.974453,80.035092 17.974453,80.035092 C 17.974453,80.035092 16.646193,63.653212 18.859953,58.782922 C 21.073723,53.912632 23.730243,49.042352 26.386763,50.370612 C 29.043283,51.698872 27.715023,80.477842 27.715023,80.477842 C 27.715023,80.477842 30.371543,73.836542 32.142563,69.851762 C 33.913573,65.866982 35.241833,62.324952 37.455603,64.538722 C 39.669363,66.752492 37.898353,88.004652 37.898353,88.004652 C 37.898353,88.004652 41.440383,82.691612 44.096903,81.363352 C 46.753423,80.035092 48.081683,79.149582 49.852693,82.248862 C 51.623713,85.348132 51.180953,89.332912 51.180953,89.332912 C 51.180953,89.332912 52.509213,84.905382 55.608493,84.905382 C 58.707763,84.905382 62.692543,86.233642 61.364283,89.775662 C 60.036023,93.317692 73.318623,90.218422 72.433113,96.416962 C 71.547613,102.61551 72.433113,108.3713 75.975143,108.3713 C 79.517173,108.3713 81.730943,113.24159 88.814993,111.47057 C 93.242523,114.12709 86.601223,130.50897 89.700493,128.2952 C 92.799763,126.08143 99.883832,124.31042 102.54035,129.18071 C 105.19687,134.051 98.998322,139.8068 102.54034,144.23434 C 106.08237,148.66187 102.54034,152.64665 107.85338,156.18868 C 113.16643,159.7307 113.60918,157.07418 114.93744,165.04374 C 116.2657,173.0133 116.2657,176.55533 118.47947,179.65461 C 120.69323,182.75388 123.34975,184.96765 122.907,191.60895 C 122.46425,198.25025 118.47947,204.44879 123.79251,203.56329 C 129.10555,202.67778 131.31931,197.36474 135.30409,195.15097 C 139.28888,192.93721 140.17438,192.49445 145.48742,188.50967 C 150.80046,184.52489 151.68597,179.21185 154.78524,177.88359 C 157.88452,176.55533 160.54104,176.99809 164.96857,175.22707 C 169.39611,173.45606 173.82364,169.47128 176.03741,167.70026 C 178.25117,165.92925 178.25117,165.04374 182.23595,161.50172 C 186.22073,157.95969 190.20551,155.74592 192.86203,149.99013 C 195.51855,144.23433 195.0758,143.79158 198.17507,135.37926 C 201.27435,126.96694 200.38884,124.31042 202.15986,120.7684 C 203.93087,117.22637 203.93087,114.12709 207.03014,111.02782 C 210.12942,107.92855 212.78594,104.38652 213.22869,107.48579 C 213.67144,110.58507 213.67144,115.0126 213.67144,117.66912 C 213.67144,120.32564 217.65622,113.68434 221.19825,107.04304 C 224.74028,100.40174 222.96926,99.516232 224.29752,93.760442 C 225.62578,88.004652 224.29752,84.019872 224.74028,77.378572 C 225.18303,70.737272 226.06854,70.294512 226.51129,60.553932 C 226.95404,50.813362 227.74102,49.177672 227.74102,42.093622 C 227.74102,35.009562 227.48352,32.144152 227.3968,26.904682 C 228.93395,22.883112 230.65636,21.653392 231.82433,22.034392 C 233.26294,22.415392 235.19426,22.440362 236.3504,27.790182 C 237.23591,33.545982 238.03469,37.838192 238.90839,48.599592 C 238.02288,59.225672 237.58013,68.523502 239.35114,71.180022 C 241.12215,73.836542 242.45041,73.393792 243.77867,70.294512 C 245.10693,67.195242 245.10693,65.866982 246.87795,60.553932 C 248.64896,55.240892 248.53727,51.759282 249.44774,44.344172 C 249.00499,33.275332 249.53447,28.232942 249.97722,19.820622 C 250.41997,11.408311 249.92862,11.162635 250.86273,6.0952695 C 251.66151,1.2985515 252.78087,0.15555452 256.61852,0.78222952 C 258.83229,3.4387495 259.27504,10.080051 260.16055,15.835842 C 261.04606,21.591642 261.04606,21.148882 261.48881,31.774962 C 261.93156,42.401052 261.55056,46.643322 260.66506,50.185342 C 260.45617,54.133342 259.6692,58.056372 260.16055,59.668432 C 262.81707,57.897412 262.81707,54.798142 265.47359,48.599592 C 268.13011,42.401052 270.34388,37.088012 271.22938,30.003952 C 272.11489,22.919902 274.47713,20.325132 275.98932,12.527679 C 279.53135,5.0008715 280.30649,3.1812595 282.74097,2.9959965 C 285.31077,4.8405785 286.52868,6.5012385 286.283,12.293818 C 284.95474,18.492362 284.95474,21.591642 282.74097,27.790182 C 280.5272,33.988732 280.96996,36.645252 277.87068,43.286552 C 275.98932,49.115922 275.7568,51.095822 274.77141,53.027132 C 279.19894,53.469882 279.13719,51.710682 281.85546,48.599592 C 286.33294,40.075582 284.63549,41.871572 286.283,39.301772 C 288.74245,34.160842 290.84585,32.267662 292.9243,33.103232 C 295.13807,36.645252 296.02357,37.530762 294.25256,41.515542 C 292.48155,45.500322 293.80981,42.843802 291.15329,48.599592 C 288.49677,54.355392 285.84024,56.569152 289.38227,56.126402 C 292.9243,55.683652 293.36705,56.126402 295.58082,52.584372 C 297.79459,49.042352 295.58082,48.599592 300.45111,46.385832 C 305.32139,44.172062 308.42067,40.187282 309.74893,43.286552 C 311.07719,46.385832 311.51994,45.943072 308.42067,50.370612 C 305.32139,54.798142 302.22212,56.126402 303.55038,58.340172 C 304.87864,60.553932 308.42067,60.996692 311.07719,60.996692 C 313.73371,60.996692 314.17646,61.439442 312.8482,65.866982 C 311.51994,70.294512 311.07719,70.294512 310.63443,72.508282 C 310.19168,74.722052 312.40545,76.493062 312.40545,76.493062 C 312.40545,76.493062 316.39023,73.836542 313.29095,80.477842 C 310.19168,87.119142 308.42067,85.348132 306.64965,88.447402 C 304.87864,91.546682 303.10763,94.645952 305.76415,94.645952 C 308.42067,94.645952 311.07719,94.203192 310.63443,96.416962 C 310.19168,98.630732 306.2069,100.84449 308.42067,102.17275 C 310.63443,103.50101 312.40545,101.73 314.17646,103.50101 C 315.94747,105.27203 314.17646,108.3713 314.17646,110.58507 C 314.17646,112.79883 313.73371,114.56985 314.61921,116.78362 C 315.50472,118.99738 317.27574,121.21115 315.94747,123.42492 C 314.61921,125.63868 316.39023,126.08144 312.8482,128.2952 C 309.30617,130.50897 307.09241,130.06622 307.09241,132.27998 C 307.09241,134.49375 306.64965,134.051 308.86342,135.82201 C 311.07719,137.59302 313.73371,136.26476 311.96269,140.24955 C 310.19168,144.23433 310.63443,143.79158 309.74893,147.33361 C 308.86342,150.87564 310.19168,149.10462 306.2069,157.51694 C 302.22212,165.92925 298.23734,172.1278 294.25256,174.34156 C 290.26778,176.55533 291.15329,181.42562 293.80981,182.31113 C 296.46633,183.19663 296.90908,187.18141 294.25256,192.93721 C 291.59604,198.693 288.49677,206.21981 287.61126,210.20459 C 286.72575,214.18937 285.84024,214.63212 281.41271,219.50241 C 276.98518,224.3727 273.44315,228.80023 269.45837,230.12849 C 265.47359,231.45675 265.03084,235.88429 262.37432,238.09805 C 259.7178,240.31182 258.83229,241.64008 253.07649,241.64008 C 247.3207,241.64008 247.3207,240.31182 241.56491,242.08283 C 235.80911,243.85385 233.15259,245.62486 232.70984,248.28138 C 232.26709,250.9379 230.49607,252.26616 226.95404,251.38065 C 223.41202,250.49515 226.06854,253.15167 221.641,254.92268 C 217.21347,256.69369 218.54173,258.90746 213.22869,258.46471 C 207.91565,258.02195 205.25913,254.03717 203.93087,258.46471 C 202.60261,262.89224 202.15986,266.43427 196.40406,262.44949 C 190.64827,258.46471 187.54899,247.83863 184.44972,258.90746 C 181.35045,269.9763 181.35045,272.63282 184.89247,275.73209 C 188.4345,278.83136 189.32001,281.48788 197.28957,284.58716 C 205.25913,287.68643 205.25913,291.22846 211.01492,293.44222 C 216.77072,295.65599 217.21347,296.5415 226.06854,300.96903 C 234.92361,305.39657 237.13737,306.72483 242.45041,309.8241 C 247.76345,312.92337 249.09171,316.02265 250.41997,319.12192 C 251.74823,322.22119 257.50403,325.76322 255.29026,330.19076 C 253.07649,334.61829 248.64896,331.96177 248.64896,334.17554 C 248.64896,336.3893 249.53447,338.16032 247.76345,342.58785 C 245.99244,347.01538 246.43519,348.7864 240.23665,350.55741 C 234.0381,352.32842 230.49607,353.21393 227.3968,351.88567 C 224.29752,350.55741 223.41202,355.87045 220.31274,354.54219 C 217.21347,353.21393 215.88521,349.22915 213.67144,351.44292 C 211.45768,353.65668 215.44246,354.98495 210.12942,356.31321 C 204.81638,357.64147 204.37362,354.09944 203.93087,357.19871 C 203.48812,360.29799 205.25913,363.39726 199.50334,360.29799 C 193.74754,357.19871 195.51855,351.00016 191.09102,355.4277 C 186.66349,359.85523 188.87725,365.16827 180.90769,360.74074 C 172.93813,356.31321 175.59465,355.87045 169.39611,356.31321 C 163.19756,356.75596 163.19756,357.19871 160.98379,352.32842 C 158.77002,347.45814 163.19756,348.7864 153.45698,348.34364 C 143.71641,347.90089 148.5867,354.09944 142.38815,345.68712 C 136.1896,337.27481 134.86134,328.8625 132.20482,338.16032 C 129.5483,347.45814 132.20482,349.6719 128.22004,352.32842 C 124.23526,354.98495 103.8686,354.09944 103.8686,354.09944 C 103.8686,354.09944 103.42585,364.28277 101.65484,366.05378 C 99.883822,367.82479 95.456293,364.28277 91.471513,367.82479 C 87.486733,371.36682 90.143253,373.58059 86.601223,376.67986 C 83.059203,379.77913 75.975143,380.22189 75.975143,380.22189 C 75.975143,380.22189 80.845433,376.23711 82.173693,372.69508 C 83.501953,369.15305 85.272963,362.95451 85.272963,362.95451 C 85.272963,362.95451 78.188913,365.61103 75.089633,366.05378 C 71.990363,366.49653 67.120073,365.61103 67.120073,365.61103 L 68.448333,375.79435 C 68.448333,375.79435 60.036023,375.79435 60.036023,372.25233 C 60.036023,368.7103 62.692543,358.96973 64.906313,357.64147 C 67.120073,356.31321 70.219353,356.75596 70.219353,356.75596 C 70.219353,356.75596 69.333843,352.32842 71.547613,351.44292 C 73.761373,350.55741 75.089633,351.44292 78.631663,351.44292 C 82.173693,351.44292 98.112812,346.57263 98.112812,346.57263 C 98.112812,346.57263 97.670062,335.06104 99.441072,330.19076 C 101.21208,325.32047 109.6244,311.59511 105.63962,309.38135 C 101.65484,307.16758 98.555562,308.93859 96.341802,311.15236 C 94.128033,313.36613 90.143253,320.00743 81.730943,321.77844 C 73.318623,323.54945 66.677323,324.43496 66.677323,324.43496 C 66.677323,324.43496 64.906313,325.32047 64.906313,328.8625 C 64.906313,332.40452 68.005583,335.94655 63.578053,340.37408 C 59.150513,344.80162 55.608493,348.7864 50.738203,346.57263 C 45.867913,344.35886 44.982403,341.70234 44.982403,341.70234 C 44.982403,341.70234 48.524433,343.91611 54.280233,342.58785 C 60.036023,341.25959 57.822253,330.19076 57.379503,327.97699 C 56.936753,325.76322 52.509213,323.54945 49.852693,325.76322 C 47.196173,327.97699 43.654143,333.73278 45.867913,335.94655 C 48.081683,338.16032 39.669363,331.07626 40.112123,327.97699 C 40.554873,324.87772 41.883133,322.66395 41.883133,322.66395 C 41.883133,322.66395 36.127343,322.66395 32.585313,322.22119 C 29.043283,321.77844 26.386763,320.00743 26.386763,322.66395 C 26.386763,325.32047 28.157783,337.27481 24.173003,329.748 C 20.188213,322.22119 18.417203,320.45018 22.401983,316.4654 z "
     id="path10416"
     sodipodi:nodetypes="cccccccccccccccccccccccccccccccccccccccccccccccccccccccccccccccccccccccccccccccccccccccccccccccccccccccccccccccccccccccccccccccccccccccccccccccccccccccccccccccccccccccccccccccccccccccccccccccc"
     style="fill:#006064;fill-opacity:1;fill-rule:evenodd;stroke:#000000;stroke-width:1pt;stroke-linecap:butt;stroke-linejoin:miter;stroke-opacity:1" />
</svg>
