<?xml version="1.0" standalone="no"?>
<!DOCTYPE svg PUBLIC "-//W3C//DTD SVG 20010904//EN"
 "http://www.w3.org/TR/2001/REC-SVG-20010904/DTD/svg10.dtd">
<svg version="1.0" xmlns="http://www.w3.org/2000/svg"
 width="1280.000000pt" height="800.000000pt" viewBox="0 0 1280.000000 800.000000"
 preserveAspectRatio="xMidYMid meet">
<metadata>
Created by potrace 1.15, written by Peter Selinger 2001-2017
</metadata>
<g transform="translate(0.000000,800.000000) scale(0.100000,-0.100000)"
fill="#009688" stroke="none">
<path d="M10244 7248 c-107 -81 -240 -226 -468 -508 -99 -124 -221 -272 -271
-330 -102 -119 -434 -460 -448 -460 -5 0 0 11 10 24 10 13 77 100 148 192 72
93 163 218 203 277 78 114 179 309 205 392 35 112 52 265 30 272 -18 6 -154
-134 -249 -257 -45 -58 -166 -226 -269 -375 -326 -468 -453 -633 -640 -824
-138 -141 -233 -227 -242 -217 -4 3 9 23 29 44 102 107 270 342 345 482 42 79
89 196 106 265 21 86 27 155 13 155 -32 0 -185 -184 -316 -380 -103 -154 -387
-557 -465 -660 -97 -129 -308 -363 -386 -429 -109 -94 -804 -794 -833 -839
-15 -24 -55 -72 -88 -107 l-60 -64 -66 25 c-76 28 -92 40 -92 65 0 25 -72 70
-138 85 -29 7 -73 26 -98 42 -30 21 -82 39 -157 57 -139 33 -151 39 -135 64
10 16 7 23 -18 45 -40 35 -151 93 -195 101 -21 4 -41 16 -50 30 -8 12 -47 51
-87 85 -40 35 -88 84 -106 110 -19 26 -61 68 -93 94 -33 26 -65 58 -72 73 -19
41 -98 137 -142 172 -25 20 -51 56 -69 94 -40 84 -103 166 -173 222 l-57 47 0
62 c0 166 -164 321 -278 262 -15 -8 -38 -26 -51 -40 -14 -14 -28 -26 -32 -26
-5 0 -6 29 -2 65 6 68 -6 132 -38 195 -39 78 -149 180 -195 180 -32 0 -79 -43
-104 -95 -12 -25 -25 -45 -28 -45 -4 0 -8 28 -10 63 -5 126 -32 200 -109 298
-45 58 -82 83 -108 73 -34 -14 -83 -116 -114 -239 -13 -50 -25 -97 -28 -105
-3 -9 -18 14 -38 56 -49 108 -101 184 -125 184 -63 0 -158 -240 -205 -520 -27
-160 -23 -149 -47 -112 -14 23 -27 32 -41 30 -43 -6 -110 -141 -151 -303 -27
-110 -38 -219 -38 -380 -1 -129 3 -177 20 -247 21 -84 66 -188 82 -188 4 0 15
-17 24 -37 22 -51 63 -123 81 -143 8 -9 15 -20 15 -24 0 -12 100 -154 133
-189 16 -18 45 -54 63 -82 19 -27 56 -77 84 -110 27 -33 49 -65 50 -71 0 -15
86 -141 122 -179 16 -16 38 -43 49 -60 12 -16 40 -45 63 -62 23 -18 60 -50 82
-71 60 -58 184 -150 213 -157 23 -6 107 -42 154 -66 9 -5 25 -13 35 -18 9 -5
53 -27 97 -48 44 -21 82 -40 85 -43 3 -3 21 -13 40 -22 61 -31 102 -56 141
-88 21 -16 42 -30 48 -30 5 0 14 -6 18 -13 4 -8 35 -32 68 -54 33 -23 83 -63
110 -90 28 -26 73 -66 100 -88 75 -60 216 -206 284 -293 33 -42 67 -84 74 -93
55 -64 112 -168 98 -182 -5 -5 -50 -20 -101 -33 -50 -13 -125 -40 -165 -59
-41 -19 -77 -35 -79 -35 -8 0 -99 -63 -130 -90 -95 -82 -156 -145 -156 -162 0
-10 -4 -18 -9 -18 -16 0 -20 -42 -5 -57 16 -16 18 -29 5 -37 -5 -3 -11 -18
-14 -33 -3 -16 -12 -46 -21 -68 -19 -51 -20 -136 -2 -180 20 -47 36 -44 36 5
0 38 1 40 33 41 90 5 149 -17 272 -100 76 -50 239 -126 345 -159 52 -16 142
-51 200 -76 58 -26 143 -61 190 -78 l85 -30 360 -10 c388 -10 829 -6 990 11
55 6 150 15 210 21 384 38 609 78 870 155 263 78 262 78 492 104 89 11 166 22
172 26 20 12 11 25 -16 25 -39 0 -56 14 -49 38 5 16 19 22 59 27 29 4 74 18
100 31 39 20 66 26 136 27 47 2 93 7 101 12 8 5 23 8 32 7 10 -2 34 2 55 8 21
6 90 13 153 16 64 2 154 11 200 20 47 9 113 19 146 24 34 4 67 11 74 15 7 4
57 11 112 15 59 4 103 11 107 18 6 9 68 10 262 2 231 -8 536 -13 744 -11 52 1
75 4 66 10 -11 7 -7 10 14 13 33 4 44 23 18 32 -10 4 -67 18 -126 31 -60 13
-111 26 -114 29 -4 3 23 6 58 6 80 1 65 11 -63 44 -107 28 -234 48 -468 75
-593 69 -772 91 -785 99 -18 12 -99 31 -133 32 -17 0 -74 11 -126 25 -52 14
-104 25 -116 25 -32 0 -159 30 -196 46 -17 7 -72 24 -123 36 -79 19 -90 24
-75 35 16 12 16 14 1 31 -9 10 -17 27 -17 38 0 10 -9 30 -20 44 -25 32 -25 52
1 76 43 39 42 48 -11 116 -43 54 -50 69 -50 109 0 52 8 61 83 100 55 28 65 50
42 86 -12 18 -15 36 -11 67 8 51 12 56 61 82 l40 22 3 102 3 101 34 15 c46 19
50 28 50 109 0 65 2 70 23 73 12 2 22 8 22 14 0 6 7 19 15 28 12 13 14 29 7
77 -9 62 -1 103 18 103 11 0 30 17 62 55 15 19 16 25 3 60 -25 70 -20 98 25
134 22 17 40 39 40 48 0 9 -15 45 -32 81 l-33 64 25 17 c53 35 91 74 85 88
-17 46 -16 61 9 88 29 32 33 57 11 75 -26 21 -17 50 30 98 25 25 45 49 45 54
0 4 -9 16 -20 25 -15 13 -20 30 -20 69 0 49 -3 55 -41 86 l-41 34 68 55 c85
68 105 96 111 151 4 35 16 57 54 102 27 32 62 85 77 119 16 34 40 76 54 92 43
51 95 130 128 191 17 33 58 93 91 134 68 85 119 180 119 222 0 40 20 76 83
148 30 34 76 98 103 143 43 72 49 88 48 135 -2 50 1 55 34 80 150 115 402 382
402 425 0 24 -152 -29 -303 -104 -98 -50 -155 -82 -439 -251 -120 -72 -221
-128 -226 -126 -5 1 38 46 95 98 365 334 457 437 544 616 92 188 84 196 -86
89 -98 -61 -233 -168 -402 -318 -401 -354 -704 -597 -617 -495 18 22 39 44
179 193 217 230 384 447 455 593 53 108 96 241 105 325 8 74 4 79 -41 45z"/>
</g>
</svg>
