<?xml version="1.0" standalone="no"?>
<!DOCTYPE svg PUBLIC "-//W3C//DTD SVG 20010904//EN"
 "http://www.w3.org/TR/2001/REC-SVG-20010904/DTD/svg10.dtd">
<svg version="1.0" xmlns="http://www.w3.org/2000/svg"
 width="1280.000000pt" height="919.000000pt" viewBox="0 0 1280.000000 919.000000"
 preserveAspectRatio="xMidYMid meet">
<g transform="translate(0.000000,919.000000) scale(0.100000,-0.100000)"
fill="#006064" stroke="none">
<path d="M12625 9174 c-27 -8 -97 -21 -155 -29 -149 -22 -278 -48 -490 -100
-102 -25 -239 -57 -305 -70 -375 -74 -734 -204 -1360 -495 -620 -288 -1118
-560 -1675 -915 -741 -471 -1567 -1102 -2177 -1662 -61 -57 -118 -103 -125
-103 -20 0 -620 404 -744 501 -216 169 -447 409 -576 598 -243 356 -574 532
-998 532 -293 0 -441 -49 -795 -265 -210 -129 -436 -228 -595 -262 -36 -7
-122 -14 -191 -14 -357 0 -903 -51 -1309 -121 -280 -48 -739 -154 -780 -180
-12 -8 -11 -9 5 -5 37 9 348 46 515 61 356 31 880 55 1223 55 171 0 227 -4
308 -20 215 -44 416 -125 578 -235 109 -73 178 -137 283 -262 262 -315 680
-689 1087 -971 169 -117 225 -189 411 -522 138 -248 201 -356 278 -475 267
-413 617 -778 1007 -1050 541 -377 1486 -833 2520 -1214 121 -45 234 -88 250
-95 17 -8 413 -347 880 -755 468 -408 859 -747 870 -753 11 -6 2 8 -20 31 -27
28 -34 41 -23 41 9 0 103 -50 208 -111 105 -61 193 -109 196 -107 2 2 -31 33
-74 69 -111 92 -415 393 -546 539 -228 254 -418 499 -600 773 -162 245 -255
406 -457 794 -98 188 -219 416 -270 505 -287 511 -596 972 -866 1295 -57 67
-103 125 -103 127 0 3 37 29 83 59 418 273 1476 1293 3333 3212 346 357 558
582 834 884 355 388 473 533 526 645 l19 38 -30 24 c-34 27 -72 29 -150 8z"/>
</g>
</svg>
