<svg xmlns="http://www.w3.org/2000/svg" xmlns:xlink="http://www.w3.org/1999/xlink" width="536.998" height="76.423" viewBox="0 0 536.998 76.423"><defs><style>.a{fill:url(#a);}</style><linearGradient id="a" x1="0.5" x2="0.5" y2="1" gradientUnits="objectBoundingBox"><stop offset="0" stop-color="#a9afb7"/><stop offset="1" stop-color="#fff"/></linearGradient></defs><g transform="translate(345.831)"><path class="a" d="M1095.574,1029.026h-.7l-32.125,75.624h11.473l20.453-49.983,19.654,49.983H1127.7Z" transform="translate(-936.531 -1029.026)"/><path class="a" d="M1016.423,1042.029q-5.388,0-8.531,2.394a7.826,7.826,0,0,0-3.142,6.585q0,4.09,3.94,6.834a52.078,52.078,0,0,0,11.025,5.437,45.149,45.149,0,0,1,9.229,4.34,19.591,19.591,0,0,1,6.336,6.635,20.41,20.41,0,0,1,2.494,10.575,19.559,19.559,0,0,1-2.894,10.476,20.473,20.473,0,0,1-8.38,7.482,28.261,28.261,0,0,1-12.969,2.793,42.307,42.307,0,0,1-12.97-2.046,40.321,40.321,0,0,1-11.373-5.638l5.188-9.078a33.3,33.3,0,0,0,8.73,4.638,27.208,27.208,0,0,0,9.328,1.847,16.891,16.891,0,0,0,9.278-2.545q3.988-2.542,3.99-7.832a8.741,8.741,0,0,0-3.342-6.983,33.073,33.073,0,0,0-9.328-5.087,77.915,77.915,0,0,1-10.276-4.541,21.391,21.391,0,0,1-7.034-6.285,16.746,16.746,0,0,1-2.942-10.127q0-8.877,6.035-14.316t15.912-5.836a43.692,43.692,0,0,1,12.621,1.646,40.669,40.669,0,0,1,10.125,4.638l-4.39,8.88Q1023.705,1042.03,1016.423,1042.029Z" transform="translate(-1025.02 -1029.157)"/><path class="a" d="M950.634,1032.173v72.63H938.963v-72.63Z" transform="translate(-1105.467 -1029.178)"/><path class="a" d="M861.511,1032.173v61.456h35.817V1104.8H849.839v-72.63Z" transform="translate(-1195.67 -1029.178)"/></g></svg>