<svg xmlns="http://www.w3.org/2000/svg" xmlns:xlink="http://www.w3.org/1999/xlink" width="100" height="28.566" viewBox="0 0 100 28.566"><defs><style>.a{fill:url(#a);}</style><linearGradient id="a" x1="0.5" x2="0.5" y2="1" gradientUnits="objectBoundingBox"><stop offset="0" stop-color="#91a1a8"/><stop offset="0.488" stop-color="#5c98b3"/><stop offset="1" stop-color="#0089c7"/></linearGradient></defs><path class="a" d="M854.2,1032.173v22.972H867.59v4.177H849.839v-27.148Z" transform="translate(-849.839 -1031.054)"/><path class="a" d="M943.326,1032.173v27.148h-4.363v-27.148Z" transform="translate(-907.265 -1031.054)"/><path class="a" d="M999.368,1035.594a5.142,5.142,0,0,0-3.189.895A2.925,2.925,0,0,0,995,1038.95a3.03,3.03,0,0,0,1.473,2.554,19.456,19.456,0,0,0,4.121,2.032,16.871,16.871,0,0,1,3.449,1.622,7.323,7.323,0,0,1,2.368,2.48,7.63,7.63,0,0,1,.932,3.953,7.311,7.311,0,0,1-1.082,3.916,7.654,7.654,0,0,1-3.133,2.8,10.563,10.563,0,0,1-4.848,1.044,15.81,15.81,0,0,1-4.848-.765,15.067,15.067,0,0,1-4.251-2.107l1.939-3.393a12.453,12.453,0,0,0,3.263,1.734,10.17,10.17,0,0,0,3.487.69,6.314,6.314,0,0,0,3.468-.951,3.229,3.229,0,0,0,1.492-2.928,3.267,3.267,0,0,0-1.249-2.61,12.36,12.36,0,0,0-3.487-1.9,29.123,29.123,0,0,1-3.841-1.7,7.994,7.994,0,0,1-2.629-2.349,6.26,6.26,0,0,1-1.1-3.785,6.857,6.857,0,0,1,2.256-5.351,9.131,9.131,0,0,1,5.948-2.182,16.331,16.331,0,0,1,4.718.615,15.2,15.2,0,0,1,3.785,1.734l-1.641,3.319A13.809,13.809,0,0,0,999.368,1035.594Z" transform="translate(-939.628 -1030.783)"/><g transform="translate(75.724)"><path class="a" d="M1075.019,1029.026h-.261l-12.008,28.267h4.288l7.645-18.683,7.347,18.683h5Z" transform="translate(-1062.75 -1029.026)"/></g></svg>